<?xml version="1.0" encoding="UTF-8" standalone="no"?>
<!DOCTYPE svg PUBLIC "-//W3C//DTD SVG 1.1//EN"
 "http://www.w3.org/Graphics/SVG/1.1/DTD/svg11.dtd">
<!-- Generated by graphviz version 2.30.1 (20140110.0959)
 -->
<!-- Title: ./go&#45;perf&#45;demo.test; 584 samples Pages: 1 -->
<svg width="100%" height="100%"
  xmlns="http://www.w3.org/2000/svg" xmlns:xlink="http://www.w3.org/1999/xlink">
<script type="text/ecmascript"><![CDATA[
// SVGPan
// http://www.cyberz.org/blog/2009/12/08/svgpan-a-javascript-svg-panzoomdrag-library/
// Local modification: if(true || ...) below to force panning, never moving.
// Local modification: add clamping to fix bug in handleMouseWheel.

/**
 *  SVGPan library 1.2
 * ====================
 *
 * Given an unique existing element with id "viewport", including the
 * the library into any SVG adds the following capabilities:
 *
 *  - Mouse panning
 *  - Mouse zooming (using the wheel)
 *  - Object dargging
 *
 * Known issues:
 *
 *  - Zooming (while panning) on Safari has still some issues
 *
 * Releases:
 *
 * 1.2, Sat Mar 20 08:42:50 GMT 2010, Zeng Xiaohui
 *	Fixed a bug with browser mouse handler interaction
 *
 * 1.1, Wed Feb  3 17:39:33 GMT 2010, Zeng Xiaohui
 *	Updated the zoom code to support the mouse wheel on Safari/Chrome
 *
 * 1.0, Andrea Leofreddi
 *	First release
 *
 * This code is licensed under the following BSD license:
 *
 * Copyright 2009-2010 Andrea Leofreddi <a.leofreddi@itcharm.com>. All rights reserved.
 *
 * Redistribution and use in source and binary forms, with or without modification, are
 * permitted provided that the following conditions are met:
 *
 *    1. Redistributions of source code must retain the above copyright notice, this list of
 *       conditions and the following disclaimer.
 *
 *    2. Redistributions in binary form must reproduce the above copyright notice, this list
 *       of conditions and the following disclaimer in the documentation and/or other materials
 *       provided with the distribution.
 *
 * THIS SOFTWARE IS PROVIDED BY Andrea Leofreddi ``AS IS'' AND ANY EXPRESS OR IMPLIED
 * WARRANTIES, INCLUDING, BUT NOT LIMITED TO, THE IMPLIED WARRANTIES OF MERCHANTABILITY AND
 * FITNESS FOR A PARTICULAR PURPOSE ARE DISCLAIMED. IN NO EVENT SHALL Andrea Leofreddi OR
 * CONTRIBUTORS BE LIABLE FOR ANY DIRECT, INDIRECT, INCIDENTAL, SPECIAL, EXEMPLARY, OR
 * CONSEQUENTIAL DAMAGES (INCLUDING, BUT NOT LIMITED TO, PROCUREMENT OF SUBSTITUTE GOODS OR
 * SERVICES; LOSS OF USE, DATA, OR PROFITS; OR BUSINESS INTERRUPTION) HOWEVER CAUSED AND ON
 * ANY THEORY OF LIABILITY, WHETHER IN CONTRACT, STRICT LIABILITY, OR TORT (INCLUDING
 * NEGLIGENCE OR OTHERWISE) ARISING IN ANY WAY OUT OF THE USE OF THIS SOFTWARE, EVEN IF
 * ADVISED OF THE POSSIBILITY OF SUCH DAMAGE.
 *
 * The views and conclusions contained in the software and documentation are those of the
 * authors and should not be interpreted as representing official policies, either expressed
 * or implied, of Andrea Leofreddi.
 */

var root = document.documentElement;

var state = 'none', stateTarget, stateOrigin, stateTf;

setupHandlers(root);

/**
 * Register handlers
 */
function setupHandlers(root){
	setAttributes(root, {
		"onmouseup" : "add(evt)",
		"onmousedown" : "handleMouseDown(evt)",
		"onmousemove" : "handleMouseMove(evt)",
		"onmouseup" : "handleMouseUp(evt)",
		//"onmouseout" : "handleMouseUp(evt)", // Decomment this to stop the pan functionality when dragging out of the SVG element
	});

	if(navigator.userAgent.toLowerCase().indexOf('webkit') >= 0)
		window.addEventListener('mousewheel', handleMouseWheel, false); // Chrome/Safari
	else
		window.addEventListener('DOMMouseScroll', handleMouseWheel, false); // Others

	var g = svgDoc.getElementById("svg");
	g.width = "100%";
	g.height = "100%";
}

/**
 * Instance an SVGPoint object with given event coordinates.
 */
function getEventPoint(evt) {
	var p = root.createSVGPoint();

	p.x = evt.clientX;
	p.y = evt.clientY;

	return p;
}

/**
 * Sets the current transform matrix of an element.
 */
function setCTM(element, matrix) {
	var s = "matrix(" + matrix.a + "," + matrix.b + "," + matrix.c + "," + matrix.d + "," + matrix.e + "," + matrix.f + ")";

	element.setAttribute("transform", s);
}

/**
 * Dumps a matrix to a string (useful for debug).
 */
function dumpMatrix(matrix) {
	var s = "[ " + matrix.a + ", " + matrix.c + ", " + matrix.e + "\n  " + matrix.b + ", " + matrix.d + ", " + matrix.f + "\n  0, 0, 1 ]";

	return s;
}

/**
 * Sets attributes of an element.
 */
function setAttributes(element, attributes){
	for (i in attributes)
		element.setAttributeNS(null, i, attributes[i]);
}

/**
 * Handle mouse move event.
 */
function handleMouseWheel(evt) {
	if(evt.preventDefault)
		evt.preventDefault();

	evt.returnValue = false;

	var svgDoc = evt.target.ownerDocument;

	var delta;

	if(evt.wheelDelta)
		delta = evt.wheelDelta / 3600; // Chrome/Safari
	else
		delta = evt.detail / -90; // Mozilla

	var z = 1 + delta; // Zoom factor: 0.9/1.1

	// Clamp to reasonable values.
	// The 0.1 check is important because
	// a very large scroll can turn into a
	// negative z, which rotates the image 180 degrees.
	if(z < 0.1)
		z = 0.1;
	if(z > 10.0)
		z = 10.0;

	var g = svgDoc.getElementById("viewport");

	var p = getEventPoint(evt);

	p = p.matrixTransform(g.getCTM().inverse());

	// Compute new scale matrix in current mouse position
	var k = root.createSVGMatrix().translate(p.x, p.y).scale(z).translate(-p.x, -p.y);

        setCTM(g, g.getCTM().multiply(k));

	stateTf = stateTf.multiply(k.inverse());
}

/**
 * Handle mouse move event.
 */
function handleMouseMove(evt) {
	if(evt.preventDefault)
		evt.preventDefault();

	evt.returnValue = false;

	var svgDoc = evt.target.ownerDocument;

	var g = svgDoc.getElementById("viewport");

	if(state == 'pan') {
		// Pan mode
		var p = getEventPoint(evt).matrixTransform(stateTf);

		setCTM(g, stateTf.inverse().translate(p.x - stateOrigin.x, p.y - stateOrigin.y));
	} else if(state == 'move') {
		// Move mode
		var p = getEventPoint(evt).matrixTransform(g.getCTM().inverse());

		setCTM(stateTarget, root.createSVGMatrix().translate(p.x - stateOrigin.x, p.y - stateOrigin.y).multiply(g.getCTM().inverse()).multiply(stateTarget.getCTM()));

		stateOrigin = p;
	}
}

/**
 * Handle click event.
 */
function handleMouseDown(evt) {
	if(evt.preventDefault)
		evt.preventDefault();

	evt.returnValue = false;

	var svgDoc = evt.target.ownerDocument;

	var g = svgDoc.getElementById("viewport");

	if(true || evt.target.tagName == "svg") {
		// Pan mode
		state = 'pan';

		stateTf = g.getCTM().inverse();

		stateOrigin = getEventPoint(evt).matrixTransform(stateTf);
	} else {
		// Move mode
		state = 'move';

		stateTarget = evt.target;

		stateTf = g.getCTM().inverse();

		stateOrigin = getEventPoint(evt).matrixTransform(stateTf);
	}
}

/**
 * Handle mouse button release event.
 */
function handleMouseUp(evt) {
	if(evt.preventDefault)
		evt.preventDefault();

	evt.returnValue = false;

	var svgDoc = evt.target.ownerDocument;

	if(state == 'pan' || state == 'move') {
		// Quit pan mode
		state = '';
	}
}

]]></script>
<g id="viewport" transform="translate(0,0)">
<g id="viewport" class="graph" transform="scale(1 1) rotate(0) translate(4 2002)">
<title>./go&#45;perf&#45;demo.test; 584 samples</title>
<polygon fill="white" stroke="white" points="-4,5 -4,-2002 940,-2002 940,5 -4,5"/>
<!-- Legend -->
<g id="node1" class="node"><title>Legend</title>
<text text-anchor="start" x="8" y="-1974.8" font-family="Times,serif" font-size="24.00">./go&#45;perf&#45;demo.test</text>
<text text-anchor="start" x="8" y="-1948.8" font-family="Times,serif" font-size="24.00">Total samples: 584</text>
<text text-anchor="start" x="8" y="-1922.8" font-family="Times,serif" font-size="24.00">Focusing on: 584</text>
<text text-anchor="start" x="8" y="-1896.8" font-family="Times,serif" font-size="24.00">Dropped nodes with &lt;= 2 abs(samples)</text>
<text text-anchor="start" x="8" y="-1870.8" font-family="Times,serif" font-size="24.00">Dropped edges with &lt;= 0 samples</text>
</g>
<!-- N1 -->
<g id="node2" class="node"><title>N1</title>
<polygon fill="none" stroke="black" points="540.25,-1631.5 353.75,-1631.5 353.75,-1596.5 540.25,-1596.5 540.25,-1631.5"/>
<text text-anchor="middle" x="447" y="-1621.1" font-family="Times,serif" font-size="8.00">github.com/gpaul/go&#45;perf&#45;demo.BenchmarkFillBlock</text>
<text text-anchor="end" x="532.5" y="-1612.1" font-family="Times,serif" font-size="8.00">0 (0.0%)</text>
<text text-anchor="end" x="532.5" y="-1603.1" font-family="Times,serif" font-size="8.00">of 537 (92.0%)</text>
</g>
<!-- N2 -->
<g id="node3" class="node"><title>N2</title>
<polygon fill="none" stroke="black" points="553.25,-1543.5 340.75,-1543.5 340.75,-1496.5 553.25,-1496.5 553.25,-1543.5"/>
<text text-anchor="middle" x="447" y="-1530.22" font-family="Times,serif" font-size="11.60">github.com/gpaul/go&#45;perf&#45;demo.FillBlock</text>
<text text-anchor="end" x="545.5" y="-1517.22" font-family="Times,serif" font-size="11.60">3 (0.5%)</text>
<text text-anchor="end" x="545.5" y="-1504.22" font-family="Times,serif" font-size="11.60">of 537 (92.0%)</text>
</g>
<!-- N1&#45;&gt;N2 -->
<g id="edge17" class="edge"><title>N1&#45;&gt;N2</title>
<path fill="none" stroke="black" stroke-width="2" d="M447,-1596.13C447,-1584.27 447,-1568.03 447,-1553.68"/>
<polygon fill="black" stroke="black" points="450.5,-1553.66 447,-1543.66 443.5,-1553.66 450.5,-1553.66"/>
<text text-anchor="middle" x="457.5" y="-1566.3" font-family="Times,serif" font-size="14.00">537</text>
</g>
<!-- N11 -->
<g id="node12" class="node"><title>N11</title>
<polygon fill="none" stroke="black" points="404,-1048 132,-1048 132,-966 404,-966 404,-1048"/>
<text text-anchor="middle" x="268" y="-1017.04" font-family="Times,serif" font-size="33.70">runtime.memmove</text>
<text text-anchor="end" x="396" y="-980.04" font-family="Times,serif" font-size="33.70">154 (26.4%)</text>
</g>
<!-- N2&#45;&gt;N11 -->
<g id="edge3" class="edge"><title>N2&#45;&gt;N11</title>
<path fill="none" stroke="black" d="M340.694,-1498.73C265.87,-1481.31 179,-1453.28 179,-1417 179,-1417 179,-1417 179,-1136 179,-1105.98 195.709,-1077.94 214.647,-1055.81"/>
<polygon fill="black" stroke="black" points="217.363,-1058.02 221.415,-1048.23 212.143,-1053.36 217.363,-1058.02"/>
<text text-anchor="middle" x="182.5" y="-1277.3" font-family="Times,serif" font-size="14.00">4</text>
</g>
<!-- N14 -->
<g id="node15" class="node"><title>N14</title>
<polygon fill="none" stroke="black" points="326,-1309 204,-1309 204,-1253 326,-1253 326,-1309"/>
<text text-anchor="middle" x="265" y="-1293.4" font-family="Times,serif" font-size="14.50">runtime.growslice</text>
<text text-anchor="end" x="318" y="-1277.4" font-family="Times,serif" font-size="14.50">10 (1.7%)</text>
<text text-anchor="end" x="318" y="-1261.4" font-family="Times,serif" font-size="14.50">of 132 (22.6%)</text>
</g>
<!-- N2&#45;&gt;N14 -->
<g id="edge32" class="edge"><title>N2&#45;&gt;N14</title>
<path fill="none" stroke="black" d="M357.021,-1496.44C329.459,-1485.14 301.756,-1468.45 284,-1444 257.835,-1407.97 256.643,-1355.09 259.618,-1319.65"/>
<polygon fill="black" stroke="black" points="263.146,-1319.54 260.652,-1309.24 256.18,-1318.85 263.146,-1319.54"/>
<text text-anchor="middle" x="291" y="-1412.3" font-family="Times,serif" font-size="14.00">48</text>
</g>
<!-- N6 -->
<g id="node7" class="node"><title>N6</title>
<polygon fill="none" stroke="black" points="587,-1444 307,-1444 307,-1388 587,-1388 587,-1444"/>
<text text-anchor="middle" x="447" y="-1428.08" font-family="Times,serif" font-size="14.90">github.com/gpaul/go&#45;perf&#45;demo.tupleBytes</text>
<text text-anchor="end" x="579" y="-1412.08" font-family="Times,serif" font-size="14.90">11 (1.9%)</text>
<text text-anchor="end" x="579" y="-1396.08" font-family="Times,serif" font-size="14.90">of 482 (82.5%)</text>
</g>
<!-- N2&#45;&gt;N6 -->
<g id="edge34" class="edge"><title>N2&#45;&gt;N6</title>
<path fill="none" stroke="black" stroke-width="2" d="M447,-1496.36C447,-1484.11 447,-1468.65 447,-1454.64"/>
<polygon fill="black" stroke="black" points="450.5,-1454.29 447,-1444.29 443.5,-1454.29 450.5,-1454.29"/>
<text text-anchor="middle" x="457.5" y="-1466.3" font-family="Times,serif" font-size="14.00">482</text>
</g>
<!-- N3 -->
<g id="node4" class="node"><title>N3</title>
<polygon fill="none" stroke="black" points="483.25,-1946.5 410.75,-1946.5 410.75,-1911.5 483.25,-1911.5 483.25,-1946.5"/>
<text text-anchor="middle" x="447" y="-1936.1" font-family="Times,serif" font-size="8.00">runtime.gosched0</text>
<text text-anchor="end" x="475.5" y="-1927.1" font-family="Times,serif" font-size="8.00">0 (0.0%)</text>
<text text-anchor="end" x="475.5" y="-1918.1" font-family="Times,serif" font-size="8.00">of 537 (92.0%)</text>
</g>
<!-- N4 -->
<g id="node5" class="node"><title>N4</title>
<polygon fill="none" stroke="black" points="486,-1807.5 408,-1807.5 408,-1772.5 486,-1772.5 486,-1807.5"/>
<text text-anchor="middle" x="447" y="-1797.1" font-family="Times,serif" font-size="8.00">testing.(*B).launch</text>
<text text-anchor="end" x="478" y="-1788.1" font-family="Times,serif" font-size="8.00">0 (0.0%)</text>
<text text-anchor="end" x="478" y="-1779.1" font-family="Times,serif" font-size="8.00">of 537 (92.0%)</text>
</g>
<!-- N3&#45;&gt;N4 -->
<g id="edge16" class="edge"><title>N3&#45;&gt;N4</title>
<path fill="none" stroke="black" stroke-width="2" d="M447,-1911.47C447,-1888.23 447,-1845.61 447,-1817.8"/>
<polygon fill="black" stroke="black" points="450.5,-1817.58 447,-1807.58 443.5,-1817.58 450.5,-1817.58"/>
<text text-anchor="middle" x="457.5" y="-1830.3" font-family="Times,serif" font-size="14.00">537</text>
</g>
<!-- N5 -->
<g id="node6" class="node"><title>N5</title>
<polygon fill="none" stroke="black" points="484,-1719.5 410,-1719.5 410,-1684.5 484,-1684.5 484,-1719.5"/>
<text text-anchor="middle" x="447" y="-1709.1" font-family="Times,serif" font-size="8.00">testing.(*B).runN</text>
<text text-anchor="end" x="476" y="-1700.1" font-family="Times,serif" font-size="8.00">0 (0.0%)</text>
<text text-anchor="end" x="476" y="-1691.1" font-family="Times,serif" font-size="8.00">of 537 (92.0%)</text>
</g>
<!-- N4&#45;&gt;N5 -->
<g id="edge2" class="edge"><title>N4&#45;&gt;N5</title>
<path fill="none" stroke="black" stroke-width="2" d="M447,-1772.42C447,-1760.28 447,-1743.56 447,-1729.58"/>
<polygon fill="black" stroke="black" points="450.5,-1729.53 447,-1719.53 443.5,-1729.53 450.5,-1729.53"/>
<text text-anchor="middle" x="457.5" y="-1742.3" font-family="Times,serif" font-size="14.00">537</text>
</g>
<!-- N5&#45;&gt;N1 -->
<g id="edge25" class="edge"><title>N5&#45;&gt;N1</title>
<path fill="none" stroke="black" stroke-width="2" d="M447,-1684.42C447,-1672.28 447,-1655.56 447,-1641.58"/>
<polygon fill="black" stroke="black" points="450.5,-1641.53 447,-1631.53 443.5,-1641.53 450.5,-1641.53"/>
<text text-anchor="middle" x="457.5" y="-1654.3" font-family="Times,serif" font-size="14.00">537</text>
</g>
<!-- N7 -->
<g id="node8" class="node"><title>N7</title>
<polygon fill="none" stroke="black" points="550,-1336 344,-1336 344,-1226 550,-1226 550,-1336"/>
<text text-anchor="middle" x="447" y="-1307.2" font-family="Times,serif" font-size="31.00">bytes.Repeat</text>
<text text-anchor="end" x="542" y="-1273.2" font-family="Times,serif" font-size="31.00">124 (21.2%)</text>
<text text-anchor="end" x="542" y="-1239.2" font-family="Times,serif" font-size="31.00">of 310 (53.1%)</text>
</g>
<!-- N6&#45;&gt;N7 -->
<g id="edge8" class="edge"><title>N6&#45;&gt;N7</title>
<path fill="none" stroke="black" stroke-width="2" d="M447,-1387.76C447,-1375.66 447,-1360.86 447,-1346.2"/>
<polygon fill="black" stroke="black" points="450.5,-1346.11 447,-1336.11 443.5,-1346.11 450.5,-1346.11"/>
<text text-anchor="middle" x="457.5" y="-1358.3" font-family="Times,serif" font-size="14.00">310</text>
</g>
<!-- N6&#45;&gt;N14 -->
<g id="edge14" class="edge"><title>N6&#45;&gt;N14</title>
<path fill="none" stroke="black" d="M407.833,-1387.98C386.197,-1372.91 358.933,-1353.66 335,-1336 326.112,-1329.44 316.688,-1322.3 307.734,-1315.43"/>
<polygon fill="black" stroke="black" points="309.727,-1312.55 299.67,-1309.21 305.454,-1318.09 309.727,-1312.55"/>
<text text-anchor="middle" x="387" y="-1358.3" font-family="Times,serif" font-size="14.00">84</text>
</g>
<!-- N12 -->
<g id="node13" class="node"><title>N12</title>
<polygon fill="none" stroke="black" points="553.25,-1174 390.75,-1174 390.75,-1100 553.25,-1100 553.25,-1174"/>
<text text-anchor="middle" x="472" y="-1154.08" font-family="Times,serif" font-size="19.90">runtime.makeslice</text>
<text text-anchor="end" x="545.5" y="-1132.08" font-family="Times,serif" font-size="19.90">33 (5.7%)</text>
<text text-anchor="end" x="545.5" y="-1110.08" font-family="Times,serif" font-size="19.90">of 141 (24.1%)</text>
</g>
<!-- N6&#45;&gt;N12 -->
<g id="edge15" class="edge"><title>N6&#45;&gt;N12</title>
<path fill="none" stroke="black" d="M587.133,-1409.61C704.427,-1401.81 858.758,-1382.71 898,-1336 929.446,-1298.57 928.876,-1263.91 898,-1226 856.622,-1175.2 675.633,-1152.84 563.295,-1143.7"/>
<polygon fill="black" stroke="black" points="563.562,-1140.21 553.317,-1142.91 563.008,-1147.19 563.562,-1140.21"/>
<text text-anchor="middle" x="928" y="-1277.3" font-family="Times,serif" font-size="14.00">68</text>
</g>
<!-- N27 -->
<g id="node28" class="node"><title>N27</title>
<polygon fill="none" stroke="black" points="889.25,-1301 568.75,-1301 568.75,-1261 889.25,-1261 889.25,-1301"/>
<text text-anchor="middle" x="729" y="-1285.64" font-family="Times,serif" font-size="14.20">github.com/gpaul/go&#45;perf&#45;demo.PutLittleEndianUint64</text>
<text text-anchor="end" x="881.5" y="-1269.64" font-family="Times,serif" font-size="14.20">9 (1.5%)</text>
</g>
<!-- N6&#45;&gt;N27 -->
<g id="edge19" class="edge"><title>N6&#45;&gt;N27</title>
<path fill="none" stroke="black" d="M504.407,-1387.93C555.845,-1363.67 630.514,-1328.45 679.409,-1305.39"/>
<polygon fill="black" stroke="black" points="680.977,-1308.52 688.528,-1301.09 677.991,-1302.19 680.977,-1308.52"/>
<text text-anchor="middle" x="574.5" y="-1358.3" font-family="Times,serif" font-size="14.00">9</text>
</g>
<!-- N7&#45;&gt;N11 -->
<g id="edge9" class="edge"><title>N7&#45;&gt;N11</title>
<path fill="none" stroke="black" stroke-width="1.16096" d="M395.102,-1225.85C382.336,-1210.12 369.816,-1192.24 361,-1174 339.606,-1129.73 362.501,-1108.04 337,-1066 334.914,-1062.56 332.551,-1059.23 329.988,-1056.01"/>
<polygon fill="black" stroke="black" points="332.457,-1053.52 323.249,-1048.28 327.179,-1058.12 332.457,-1053.52"/>
<text text-anchor="middle" x="371.5" y="-1133.3" font-family="Times,serif" font-size="14.00">113</text>
</g>
<!-- N7&#45;&gt;N12 -->
<g id="edge13" class="edge"><title>N7&#45;&gt;N12</title>
<path fill="none" stroke="black" d="M456.523,-1225.91C458.942,-1212.17 461.519,-1197.53 463.862,-1184.22"/>
<polygon fill="black" stroke="black" points="467.315,-1184.8 465.602,-1174.34 460.421,-1183.58 467.315,-1184.8"/>
<text text-anchor="middle" x="469" y="-1196.3" font-family="Times,serif" font-size="14.00">73</text>
</g>
<!-- N8 -->
<g id="node9" class="node"><title>N8</title>
<polygon fill="none" stroke="black" points="522,-1033.5 422,-1033.5 422,-980.5 522,-980.5 522,-1033.5"/>
<text text-anchor="middle" x="472" y="-1018.7" font-family="Times,serif" font-size="13.50">makeslice1</text>
<text text-anchor="end" x="514" y="-1003.7" font-family="Times,serif" font-size="13.50">7 (1.2%)</text>
<text text-anchor="end" x="514" y="-988.7" font-family="Times,serif" font-size="13.50">of 186 (31.8%)</text>
</g>
<!-- N9 -->
<g id="node10" class="node"><title>N9</title>
<polygon fill="none" stroke="black" points="525,-913.5 419,-913.5 419,-866.5 525,-866.5 525,-913.5"/>
<text text-anchor="middle" x="472" y="-899.82" font-family="Times,serif" font-size="12.10">runtime.cnewarray</text>
<text text-anchor="end" x="517" y="-886.82" font-family="Times,serif" font-size="12.10">4 (0.7%)</text>
<text text-anchor="end" x="517" y="-873.82" font-family="Times,serif" font-size="12.10">of 179 (30.7%)</text>
</g>
<!-- N8&#45;&gt;N9 -->
<g id="edge27" class="edge"><title>N8&#45;&gt;N9</title>
<path fill="none" stroke="black" stroke-width="1.83904" d="M472,-980.478C472,-963.773 472,-941.787 472,-923.79"/>
<polygon fill="black" stroke="black" points="475.5,-923.725 472,-913.725 468.5,-923.725 475.5,-923.725"/>
<text text-anchor="middle" x="482.5" y="-936.3" font-family="Times,serif" font-size="14.00">179</text>
</g>
<!-- N10 -->
<g id="node11" class="node"><title>N10</title>
<polygon fill="none" stroke="black" points="543.25,-813.5 400.75,-813.5 400.75,-736.5 543.25,-736.5 543.25,-813.5"/>
<text text-anchor="middle" x="472" y="-792.86" font-family="Times,serif" font-size="20.80">cnew</text>
<text text-anchor="end" x="535.5" y="-769.86" font-family="Times,serif" font-size="20.80">38 (6.5%)</text>
<text text-anchor="end" x="535.5" y="-746.86" font-family="Times,serif" font-size="20.80">of 175 (30.0%)</text>
</g>
<!-- N9&#45;&gt;N10 -->
<g id="edge35" class="edge"><title>N9&#45;&gt;N10</title>
<path fill="none" stroke="black" stroke-width="1.79794" d="M472,-866.404C472,-854.159 472,-838.542 472,-823.746"/>
<polygon fill="black" stroke="black" points="475.5,-823.685 472,-813.685 468.5,-823.685 475.5,-823.685"/>
<text text-anchor="middle" x="482.5" y="-836.3" font-family="Times,serif" font-size="14.00">175</text>
</g>
<!-- N13 -->
<g id="node14" class="node"><title>N13</title>
<polygon fill="none" stroke="black" points="550,-684 394,-684 394,-610 550,-610 550,-684"/>
<text text-anchor="middle" x="472" y="-663.92" font-family="Times,serif" font-size="20.10">runtime.mallocgc</text>
<text text-anchor="end" x="542" y="-641.92" font-family="Times,serif" font-size="20.10">34 (5.8%)</text>
<text text-anchor="end" x="542" y="-619.92" font-family="Times,serif" font-size="20.10">of 137 (23.5%)</text>
</g>
<!-- N10&#45;&gt;N13 -->
<g id="edge22" class="edge"><title>N10&#45;&gt;N13</title>
<path fill="none" stroke="black" stroke-width="1.40753" d="M472,-736.196C472,-723.026 472,-708.096 472,-694.315"/>
<polygon fill="black" stroke="black" points="475.5,-694.049 472,-684.049 468.5,-694.049 475.5,-694.049"/>
<text text-anchor="middle" x="482.5" y="-706.3" font-family="Times,serif" font-size="14.00">137</text>
</g>
<!-- N12&#45;&gt;N8 -->
<g id="edge28" class="edge"><title>N12&#45;&gt;N8</title>
<path fill="none" stroke="black" stroke-width="1.10959" d="M472,-1099.66C472,-1082.28 472,-1061.53 472,-1044.16"/>
<polygon fill="black" stroke="black" points="475.5,-1043.85 472,-1033.85 468.5,-1043.85 475.5,-1043.85"/>
<text text-anchor="middle" x="482.5" y="-1070.3" font-family="Times,serif" font-size="14.00">108</text>
</g>
<!-- N17 -->
<g id="node18" class="node"><title>N17</title>
<polygon fill="none" stroke="black" points="518.25,-544.5 425.75,-544.5 425.75,-509.5 518.25,-509.5 518.25,-544.5"/>
<text text-anchor="middle" x="472" y="-534.1" font-family="Times,serif" font-size="8.00">runtime.MCache_Refill</text>
<text text-anchor="end" x="510.5" y="-525.1" font-family="Times,serif" font-size="8.00">0 (0.0%)</text>
<text text-anchor="end" x="510.5" y="-516.1" font-family="Times,serif" font-size="8.00">of 49 (8.4%)</text>
</g>
<!-- N13&#45;&gt;N17 -->
<g id="edge7" class="edge"><title>N13&#45;&gt;N17</title>
<path fill="none" stroke="black" d="M472,-609.955C472,-592.333 472,-571.474 472,-555.21"/>
<polygon fill="black" stroke="black" points="475.5,-554.781 472,-544.781 468.5,-554.781 475.5,-554.781"/>
<text text-anchor="middle" x="479" y="-580.3" font-family="Times,serif" font-size="14.00">49</text>
</g>
<!-- N21 -->
<g id="node22" class="node"><title>N21</title>
<polygon fill="none" stroke="black" points="701.25,-558 536.75,-558 536.75,-496 701.25,-496 701.25,-558"/>
<text text-anchor="middle" x="619" y="-540.96" font-family="Times,serif" font-size="16.30">runtime.markallocated</text>
<text text-anchor="end" x="693.5" y="-522.96" font-family="Times,serif" font-size="16.30">16 (2.7%)</text>
<text text-anchor="end" x="693.5" y="-504.96" font-family="Times,serif" font-size="16.30">of 40 (6.8%)</text>
</g>
<!-- N13&#45;&gt;N21 -->
<g id="edge20" class="edge"><title>N13&#45;&gt;N21</title>
<path fill="none" stroke="black" d="M516.904,-609.955C534.769,-595.614 555.305,-579.129 573.254,-564.722"/>
<polygon fill="black" stroke="black" points="575.692,-567.253 581.299,-558.263 571.31,-561.794 575.692,-567.253"/>
<text text-anchor="middle" x="565" y="-580.3" font-family="Times,serif" font-size="14.00">40</text>
</g>
<!-- N16 -->
<g id="node17" class="node"><title>N16</title>
<polygon fill="none" stroke="black" points="527,-248.5 417,-248.5 417,-207.5 527,-207.5 527,-248.5"/>
<text text-anchor="middle" x="472" y="-236.42" font-family="Times,serif" font-size="10.10">runtime.MHeap_Alloc</text>
<text text-anchor="end" x="519" y="-225.42" font-family="Times,serif" font-size="10.10">1 (0.2%)</text>
<text text-anchor="end" x="519" y="-214.42" font-family="Times,serif" font-size="10.10">of 50 (8.6%)</text>
</g>
<!-- N13&#45;&gt;N16 -->
<g id="edge21" class="edge"><title>N13&#45;&gt;N16</title>
<path fill="none" stroke="black" d="M419.312,-609.925C395.669,-589.185 373,-560.758 373,-528 373,-528 373,-528 373,-322 373,-297.207 371.082,-287.009 387,-268 392.756,-261.126 399.984,-255.404 407.78,-250.655"/>
<polygon fill="black" stroke="black" points="409.707,-253.589 416.776,-245.698 406.329,-247.459 409.707,-253.589"/>
<text text-anchor="middle" x="380" y="-416.3" font-family="Times,serif" font-size="14.00">13</text>
</g>
<!-- N15 -->
<g id="node16" class="node"><title>N15</title>
<polygon fill="none" stroke="black" points="315,-1163.5 215,-1163.5 215,-1110.5 315,-1110.5 315,-1163.5"/>
<text text-anchor="middle" x="265" y="-1148.7" font-family="Times,serif" font-size="13.50">growslice1</text>
<text text-anchor="end" x="307" y="-1133.7" font-family="Times,serif" font-size="13.50">7 (1.2%)</text>
<text text-anchor="end" x="307" y="-1118.7" font-family="Times,serif" font-size="13.50">of 122 (20.9%)</text>
</g>
<!-- N14&#45;&gt;N15 -->
<g id="edge26" class="edge"><title>N14&#45;&gt;N15</title>
<path fill="none" stroke="black" stroke-width="1.25343" d="M265,-1252.96C265,-1230.43 265,-1198.16 265,-1173.54"/>
<polygon fill="black" stroke="black" points="268.5,-1173.51 265,-1163.51 261.5,-1173.51 268.5,-1173.51"/>
<text text-anchor="middle" x="275.5" y="-1196.3" font-family="Times,serif" font-size="14.00">122</text>
</g>
<!-- N15&#45;&gt;N8 -->
<g id="edge24" class="edge"><title>N15&#45;&gt;N8</title>
<path fill="none" stroke="black" d="M309.453,-1110.49C339.062,-1093.28 378.687,-1069.81 413,-1048 417.392,-1045.21 421.932,-1042.26 426.454,-1039.27"/>
<polygon fill="black" stroke="black" points="428.704,-1041.98 435.084,-1033.52 424.822,-1036.15 428.704,-1041.98"/>
<text text-anchor="middle" x="387" y="-1070.3" font-family="Times,serif" font-size="14.00">78</text>
</g>
<!-- N15&#45;&gt;N11 -->
<g id="edge29" class="edge"><title>N15&#45;&gt;N11</title>
<path fill="none" stroke="black" d="M265.6,-1110.4C265.949,-1095.52 266.4,-1076.25 266.818,-1058.44"/>
<polygon fill="black" stroke="black" points="270.323,-1058.25 267.059,-1048.17 263.325,-1058.08 270.323,-1058.25"/>
<text text-anchor="middle" x="273" y="-1070.3" font-family="Times,serif" font-size="14.00">37</text>
</g>
<!-- N22 -->
<g id="node23" class="node"><title>N22</title>
<polygon fill="none" stroke="black" points="546.25,-153.5 397.75,-153.5 397.75,-94.5 546.25,-94.5 546.25,-153.5"/>
<text text-anchor="middle" x="472" y="-137.34" font-family="Times,serif" font-size="15.20">MHeap_AllocLocked</text>
<text text-anchor="end" x="538.5" y="-120.34" font-family="Times,serif" font-size="15.20">12 (2.1%)</text>
<text text-anchor="end" x="538.5" y="-103.34" font-family="Times,serif" font-size="15.20">of 30 (5.1%)</text>
</g>
<!-- N16&#45;&gt;N22 -->
<g id="edge5" class="edge"><title>N16&#45;&gt;N22</title>
<path fill="none" stroke="black" d="M472,-207.333C472,-195.128 472,-179.015 472,-164.28"/>
<polygon fill="black" stroke="black" points="475.5,-163.871 472,-153.871 468.5,-163.871 475.5,-163.871"/>
<text text-anchor="middle" x="479" y="-176.3" font-family="Times,serif" font-size="14.00">30</text>
</g>
<!-- N25 -->
<g id="node26" class="node"><title>N25</title>
<polygon fill="none" stroke="black" points="379,-146 257,-146 257,-102 379,-102 379,-146"/>
<text text-anchor="middle" x="318" y="-128.56" font-family="Times,serif" font-size="16.80">runtime.memclr</text>
<text text-anchor="end" x="371" y="-110.56" font-family="Times,serif" font-size="16.80">18 (3.1%)</text>
</g>
<!-- N16&#45;&gt;N25 -->
<g id="edge30" class="edge"><title>N16&#45;&gt;N25</title>
<path fill="none" stroke="black" d="M442.307,-207.333C418.435,-191.522 384.658,-169.15 358.338,-151.717"/>
<polygon fill="black" stroke="black" points="359.992,-148.615 349.722,-146.011 356.127,-154.451 359.992,-148.615"/>
<text text-anchor="middle" x="415" y="-176.3" font-family="Times,serif" font-size="14.00">18</text>
</g>
<!-- N18 -->
<g id="node19" class="node"><title>N18</title>
<polygon fill="none" stroke="black" points="539,-440.5 405,-440.5 405,-399.5 539,-399.5 539,-440.5"/>
<text text-anchor="middle" x="472" y="-428.42" font-family="Times,serif" font-size="10.10">runtime.MCentral_AllocList</text>
<text text-anchor="end" x="531" y="-417.42" font-family="Times,serif" font-size="10.10">1 (0.2%)</text>
<text text-anchor="end" x="531" y="-406.42" font-family="Times,serif" font-size="10.10">of 49 (8.4%)</text>
</g>
<!-- N17&#45;&gt;N18 -->
<g id="edge23" class="edge"><title>N17&#45;&gt;N18</title>
<path fill="none" stroke="black" d="M472,-509.13C472,-493.453 472,-469.75 472,-450.874"/>
<polygon fill="black" stroke="black" points="475.5,-450.69 472,-440.69 468.5,-450.69 475.5,-450.69"/>
<text text-anchor="middle" x="479" y="-466.3" font-family="Times,serif" font-size="14.00">49</text>
</g>
<!-- N19 -->
<g id="node20" class="node"><title>N19</title>
<polygon fill="none" stroke="black" points="514,-343.5 430,-343.5 430,-302.5 514,-302.5 514,-343.5"/>
<text text-anchor="middle" x="472" y="-331.42" font-family="Times,serif" font-size="10.10">MCentral_Grow</text>
<text text-anchor="end" x="506" y="-320.42" font-family="Times,serif" font-size="10.10">1 (0.2%)</text>
<text text-anchor="end" x="506" y="-309.42" font-family="Times,serif" font-size="10.10">of 48 (8.2%)</text>
</g>
<!-- N18&#45;&gt;N19 -->
<g id="edge12" class="edge"><title>N18&#45;&gt;N19</title>
<path fill="none" stroke="black" d="M472,-399.316C472,-386.196 472,-368.705 472,-353.881"/>
<polygon fill="black" stroke="black" points="475.5,-353.659 472,-343.659 468.5,-353.659 475.5,-353.659"/>
<text text-anchor="middle" x="479" y="-366.3" font-family="Times,serif" font-size="14.00">48</text>
</g>
<!-- N19&#45;&gt;N16 -->
<g id="edge6" class="edge"><title>N19&#45;&gt;N16</title>
<path fill="none" stroke="black" d="M472,-302.277C472,-289.7 472,-273.16 472,-258.976"/>
<polygon fill="black" stroke="black" points="475.5,-258.694 472,-248.694 468.5,-258.695 475.5,-258.694"/>
<text text-anchor="middle" x="479" y="-272.3" font-family="Times,serif" font-size="14.00">37</text>
</g>
<!-- N30 -->
<g id="node31" class="node"><title>N30</title>
<polygon fill="none" stroke="black" points="141.25,-250 70.75,-250 70.75,-206 141.25,-206 141.25,-250"/>
<text text-anchor="middle" x="106" y="-237.28" font-family="Times,serif" font-size="10.90">runtime.lock</text>
<text text-anchor="end" x="133.5" y="-225.28" font-family="Times,serif" font-size="10.90">2 (0.3%)</text>
<text text-anchor="end" x="133.5" y="-213.28" font-family="Times,serif" font-size="10.90">of 3 (0.5%)</text>
</g>
<!-- N19&#45;&gt;N30 -->
<g id="edge31" class="edge"><title>N19&#45;&gt;N30</title>
<path fill="none" stroke="black" d="M429.91,-315.546C367.802,-305.358 248.438,-283.227 151,-250 150.903,-249.967 150.806,-249.934 150.709,-249.9"/>
<polygon fill="black" stroke="black" points="152.166,-246.709 141.574,-246.449 149.692,-253.258 152.166,-246.709"/>
<text text-anchor="middle" x="266.5" y="-272.3" font-family="Times,serif" font-size="14.00">3</text>
</g>
<!-- N29 -->
<g id="node30" class="node"><title>N29</title>
<polygon fill="none" stroke="black" points="660.25,-247 545.75,-247 545.75,-209 660.25,-209 660.25,-247"/>
<text text-anchor="middle" x="603" y="-232.2" font-family="Times,serif" font-size="13.50">runtime.markspan</text>
<text text-anchor="end" x="652.5" y="-217.2" font-family="Times,serif" font-size="13.50">7 (1.2%)</text>
</g>
<!-- N19&#45;&gt;N29 -->
<g id="edge33" class="edge"><title>N19&#45;&gt;N29</title>
<path fill="none" stroke="black" d="M499.782,-302.277C520.071,-287.873 547.684,-268.27 569.245,-252.964"/>
<polygon fill="black" stroke="black" points="571.352,-255.76 577.48,-247.118 567.299,-250.052 571.352,-255.76"/>
<text text-anchor="middle" x="548.5" y="-272.3" font-family="Times,serif" font-size="14.00">7</text>
</g>
<!-- N20 -->
<g id="node21" class="node"><title>N20</title>
<polygon fill="none" stroke="black" points="218,-245.5 160,-245.5 160,-210.5 218,-210.5 218,-245.5"/>
<text text-anchor="middle" x="189" y="-235.1" font-family="Times,serif" font-size="8.00">System</text>
<text text-anchor="end" x="210" y="-226.1" font-family="Times,serif" font-size="8.00">0 (0.0%)</text>
<text text-anchor="end" x="210" y="-217.1" font-family="Times,serif" font-size="8.00">of 47 (8.0%)</text>
</g>
<!-- N28 -->
<g id="node29" class="node"><title>N28</title>
<polygon fill="none" stroke="black" points="121.25,-143 32.75,-143 32.75,-105 121.25,-105 121.25,-143"/>
<text text-anchor="middle" x="77" y="-127.88" font-family="Times,serif" font-size="13.90">runtime.xchg</text>
<text text-anchor="end" x="113.5" y="-112.88" font-family="Times,serif" font-size="13.90">8 (1.4%)</text>
</g>
<!-- N20&#45;&gt;N28 -->
<g id="edge1" class="edge"><title>N20&#45;&gt;N28</title>
<path fill="none" stroke="black" d="M170.505,-210.157C152.545,-193.8 125.059,-168.768 104.529,-150.071"/>
<polygon fill="black" stroke="black" points="106.786,-147.392 97.0355,-143.247 102.072,-152.568 106.786,-147.392"/>
<text text-anchor="middle" x="147.5" y="-176.3" font-family="Times,serif" font-size="14.00">6</text>
</g>
<!-- N23 -->
<g id="node24" class="node"><title>N23</title>
<polygon fill="none" stroke="black" points="238.25,-149 139.75,-149 139.75,-99 238.25,-99 238.25,-149"/>
<text text-anchor="middle" x="189" y="-129.72" font-family="Times,serif" font-size="19.10">sweepspan</text>
<text text-anchor="end" x="230.5" y="-108.72" font-family="Times,serif" font-size="19.10">29 (5.0%)</text>
</g>
<!-- N20&#45;&gt;N23 -->
<g id="edge4" class="edge"><title>N20&#45;&gt;N23</title>
<path fill="none" stroke="black" d="M189,-210.157C189,-196.38 189,-176.45 189,-159.334"/>
<polygon fill="black" stroke="black" points="192.5,-159.12 189,-149.12 185.5,-159.12 192.5,-159.12"/>
<text text-anchor="middle" x="196" y="-176.3" font-family="Times,serif" font-size="14.00">29</text>
</g>
<!-- N24 -->
<g id="node25" class="node"><title>N24</title>
<polygon fill="none" stroke="black" points="674,-444 564,-444 564,-396 674,-396 674,-444"/>
<text text-anchor="middle" x="619" y="-425.52" font-family="Times,serif" font-size="18.10">runtime.casp</text>
<text text-anchor="end" x="666" y="-405.52" font-family="Times,serif" font-size="18.10">24 (4.1%)</text>
</g>
<!-- N21&#45;&gt;N24 -->
<g id="edge11" class="edge"><title>N21&#45;&gt;N24</title>
<path fill="none" stroke="black" d="M619,-495.911C619,-482.905 619,-467.639 619,-454.294"/>
<polygon fill="black" stroke="black" points="622.5,-454.083 619,-444.083 615.5,-454.083 622.5,-454.083"/>
<text text-anchor="middle" x="626" y="-466.3" font-family="Times,serif" font-size="14.00">24</text>
</g>
<!-- N26 -->
<g id="node27" class="node"><title>N26</title>
<polygon fill="none" stroke="black" points="570.25,-42 373.75,-42 373.75,-0 570.25,-0 570.25,-42"/>
<text text-anchor="middle" x="472" y="-25.6" font-family="Times,serif" font-size="15.50">runtime.MSpanList_IsEmpty</text>
<text text-anchor="end" x="562.5" y="-8.6" font-family="Times,serif" font-size="15.50">13 (2.2%)</text>
</g>
<!-- N22&#45;&gt;N26 -->
<g id="edge10" class="edge"><title>N22&#45;&gt;N26</title>
<path fill="none" stroke="black" d="M472,-94.3276C472,-81.1663 472,-65.5558 472,-52.2119"/>
<polygon fill="black" stroke="black" points="475.5,-52.0864 472,-42.0864 468.5,-52.0865 475.5,-52.0864"/>
<text text-anchor="middle" x="479" y="-64.3" font-family="Times,serif" font-size="14.00">13</text>
</g>
<!-- N30&#45;&gt;N28 -->
<g id="edge18" class="edge"><title>N30&#45;&gt;N28</title>
<path fill="none" stroke="black" d="M99.9912,-205.866C95.6222,-190.499 89.6652,-169.547 84.9096,-152.82"/>
<polygon fill="black" stroke="black" points="88.2302,-151.701 82.1288,-143.039 81.497,-153.615 88.2302,-151.701"/>
<text text-anchor="middle" x="98.5" y="-176.3" font-family="Times,serif" font-size="14.00">1</text>
</g>
</g>
</g></svg>
