<?xml version="1.0" encoding="UTF-8" standalone="no"?>
<!DOCTYPE svg PUBLIC "-//W3C//DTD SVG 1.1//EN"
 "http://www.w3.org/Graphics/SVG/1.1/DTD/svg11.dtd">
<!-- Generated by graphviz version 2.30.1 (20140110.0959)
 -->
<!-- Title: ./go&#45;perf&#45;demo.test; 518 samples Pages: 1 -->
<svg width="100%" height="100%"
  xmlns="http://www.w3.org/2000/svg" xmlns:xlink="http://www.w3.org/1999/xlink">
<script type="text/ecmascript"><![CDATA[
// SVGPan
// http://www.cyberz.org/blog/2009/12/08/svgpan-a-javascript-svg-panzoomdrag-library/
// Local modification: if(true || ...) below to force panning, never moving.
// Local modification: add clamping to fix bug in handleMouseWheel.

/**
 *  SVGPan library 1.2
 * ====================
 *
 * Given an unique existing element with id "viewport", including the
 * the library into any SVG adds the following capabilities:
 *
 *  - Mouse panning
 *  - Mouse zooming (using the wheel)
 *  - Object dargging
 *
 * Known issues:
 *
 *  - Zooming (while panning) on Safari has still some issues
 *
 * Releases:
 *
 * 1.2, Sat Mar 20 08:42:50 GMT 2010, Zeng Xiaohui
 *	Fixed a bug with browser mouse handler interaction
 *
 * 1.1, Wed Feb  3 17:39:33 GMT 2010, Zeng Xiaohui
 *	Updated the zoom code to support the mouse wheel on Safari/Chrome
 *
 * 1.0, Andrea Leofreddi
 *	First release
 *
 * This code is licensed under the following BSD license:
 *
 * Copyright 2009-2010 Andrea Leofreddi <a.leofreddi@itcharm.com>. All rights reserved.
 *
 * Redistribution and use in source and binary forms, with or without modification, are
 * permitted provided that the following conditions are met:
 *
 *    1. Redistributions of source code must retain the above copyright notice, this list of
 *       conditions and the following disclaimer.
 *
 *    2. Redistributions in binary form must reproduce the above copyright notice, this list
 *       of conditions and the following disclaimer in the documentation and/or other materials
 *       provided with the distribution.
 *
 * THIS SOFTWARE IS PROVIDED BY Andrea Leofreddi ``AS IS'' AND ANY EXPRESS OR IMPLIED
 * WARRANTIES, INCLUDING, BUT NOT LIMITED TO, THE IMPLIED WARRANTIES OF MERCHANTABILITY AND
 * FITNESS FOR A PARTICULAR PURPOSE ARE DISCLAIMED. IN NO EVENT SHALL Andrea Leofreddi OR
 * CONTRIBUTORS BE LIABLE FOR ANY DIRECT, INDIRECT, INCIDENTAL, SPECIAL, EXEMPLARY, OR
 * CONSEQUENTIAL DAMAGES (INCLUDING, BUT NOT LIMITED TO, PROCUREMENT OF SUBSTITUTE GOODS OR
 * SERVICES; LOSS OF USE, DATA, OR PROFITS; OR BUSINESS INTERRUPTION) HOWEVER CAUSED AND ON
 * ANY THEORY OF LIABILITY, WHETHER IN CONTRACT, STRICT LIABILITY, OR TORT (INCLUDING
 * NEGLIGENCE OR OTHERWISE) ARISING IN ANY WAY OUT OF THE USE OF THIS SOFTWARE, EVEN IF
 * ADVISED OF THE POSSIBILITY OF SUCH DAMAGE.
 *
 * The views and conclusions contained in the software and documentation are those of the
 * authors and should not be interpreted as representing official policies, either expressed
 * or implied, of Andrea Leofreddi.
 */

var root = document.documentElement;

var state = 'none', stateTarget, stateOrigin, stateTf;

setupHandlers(root);

/**
 * Register handlers
 */
function setupHandlers(root){
	setAttributes(root, {
		"onmouseup" : "add(evt)",
		"onmousedown" : "handleMouseDown(evt)",
		"onmousemove" : "handleMouseMove(evt)",
		"onmouseup" : "handleMouseUp(evt)",
		//"onmouseout" : "handleMouseUp(evt)", // Decomment this to stop the pan functionality when dragging out of the SVG element
	});

	if(navigator.userAgent.toLowerCase().indexOf('webkit') >= 0)
		window.addEventListener('mousewheel', handleMouseWheel, false); // Chrome/Safari
	else
		window.addEventListener('DOMMouseScroll', handleMouseWheel, false); // Others

	var g = svgDoc.getElementById("svg");
	g.width = "100%";
	g.height = "100%";
}

/**
 * Instance an SVGPoint object with given event coordinates.
 */
function getEventPoint(evt) {
	var p = root.createSVGPoint();

	p.x = evt.clientX;
	p.y = evt.clientY;

	return p;
}

/**
 * Sets the current transform matrix of an element.
 */
function setCTM(element, matrix) {
	var s = "matrix(" + matrix.a + "," + matrix.b + "," + matrix.c + "," + matrix.d + "," + matrix.e + "," + matrix.f + ")";

	element.setAttribute("transform", s);
}

/**
 * Dumps a matrix to a string (useful for debug).
 */
function dumpMatrix(matrix) {
	var s = "[ " + matrix.a + ", " + matrix.c + ", " + matrix.e + "\n  " + matrix.b + ", " + matrix.d + ", " + matrix.f + "\n  0, 0, 1 ]";

	return s;
}

/**
 * Sets attributes of an element.
 */
function setAttributes(element, attributes){
	for (i in attributes)
		element.setAttributeNS(null, i, attributes[i]);
}

/**
 * Handle mouse move event.
 */
function handleMouseWheel(evt) {
	if(evt.preventDefault)
		evt.preventDefault();

	evt.returnValue = false;

	var svgDoc = evt.target.ownerDocument;

	var delta;

	if(evt.wheelDelta)
		delta = evt.wheelDelta / 3600; // Chrome/Safari
	else
		delta = evt.detail / -90; // Mozilla

	var z = 1 + delta; // Zoom factor: 0.9/1.1

	// Clamp to reasonable values.
	// The 0.1 check is important because
	// a very large scroll can turn into a
	// negative z, which rotates the image 180 degrees.
	if(z < 0.1)
		z = 0.1;
	if(z > 10.0)
		z = 10.0;

	var g = svgDoc.getElementById("viewport");

	var p = getEventPoint(evt);

	p = p.matrixTransform(g.getCTM().inverse());

	// Compute new scale matrix in current mouse position
	var k = root.createSVGMatrix().translate(p.x, p.y).scale(z).translate(-p.x, -p.y);

        setCTM(g, g.getCTM().multiply(k));

	stateTf = stateTf.multiply(k.inverse());
}

/**
 * Handle mouse move event.
 */
function handleMouseMove(evt) {
	if(evt.preventDefault)
		evt.preventDefault();

	evt.returnValue = false;

	var svgDoc = evt.target.ownerDocument;

	var g = svgDoc.getElementById("viewport");

	if(state == 'pan') {
		// Pan mode
		var p = getEventPoint(evt).matrixTransform(stateTf);

		setCTM(g, stateTf.inverse().translate(p.x - stateOrigin.x, p.y - stateOrigin.y));
	} else if(state == 'move') {
		// Move mode
		var p = getEventPoint(evt).matrixTransform(g.getCTM().inverse());

		setCTM(stateTarget, root.createSVGMatrix().translate(p.x - stateOrigin.x, p.y - stateOrigin.y).multiply(g.getCTM().inverse()).multiply(stateTarget.getCTM()));

		stateOrigin = p;
	}
}

/**
 * Handle click event.
 */
function handleMouseDown(evt) {
	if(evt.preventDefault)
		evt.preventDefault();

	evt.returnValue = false;

	var svgDoc = evt.target.ownerDocument;

	var g = svgDoc.getElementById("viewport");

	if(true || evt.target.tagName == "svg") {
		// Pan mode
		state = 'pan';

		stateTf = g.getCTM().inverse();

		stateOrigin = getEventPoint(evt).matrixTransform(stateTf);
	} else {
		// Move mode
		state = 'move';

		stateTarget = evt.target;

		stateTf = g.getCTM().inverse();

		stateOrigin = getEventPoint(evt).matrixTransform(stateTf);
	}
}

/**
 * Handle mouse button release event.
 */
function handleMouseUp(evt) {
	if(evt.preventDefault)
		evt.preventDefault();

	evt.returnValue = false;

	var svgDoc = evt.target.ownerDocument;

	if(state == 'pan' || state == 'move') {
		// Quit pan mode
		state = '';
	}
}

]]></script>
<g id="viewport" transform="translate(0,0)">
<g id="viewport" class="graph" transform="scale(1 1) rotate(0) translate(4 1974)">
<title>./go&#45;perf&#45;demo.test; 518 samples</title>
<polygon fill="white" stroke="white" points="-4,5 -4,-1974 972,-1974 972,5 -4,5"/>
<!-- Legend -->
<g id="node1" class="node"><title>Legend</title>
<text text-anchor="start" x="8" y="-1946.8" font-family="Times,serif" font-size="24.00">./go&#45;perf&#45;demo.test</text>
<text text-anchor="start" x="8" y="-1920.8" font-family="Times,serif" font-size="24.00">Total samples: 518</text>
<text text-anchor="start" x="8" y="-1894.8" font-family="Times,serif" font-size="24.00">Focusing on: 518</text>
<text text-anchor="start" x="8" y="-1868.8" font-family="Times,serif" font-size="24.00">Dropped nodes with &lt;= 2 abs(samples)</text>
<text text-anchor="start" x="8" y="-1842.8" font-family="Times,serif" font-size="24.00">Dropped edges with &lt;= 0 samples</text>
</g>
<!-- N1 -->
<g id="node2" class="node"><title>N1</title>
<polygon fill="none" stroke="black" points="540.25,-1603.5 353.75,-1603.5 353.75,-1568.5 540.25,-1568.5 540.25,-1603.5"/>
<text text-anchor="middle" x="447" y="-1593.1" font-family="Times,serif" font-size="8.00">github.com/gpaul/go&#45;perf&#45;demo.BenchmarkFillBlock</text>
<text text-anchor="end" x="532.5" y="-1584.1" font-family="Times,serif" font-size="8.00">0 (0.0%)</text>
<text text-anchor="end" x="532.5" y="-1575.1" font-family="Times,serif" font-size="8.00">of 480 (92.7%)</text>
</g>
<!-- N2 -->
<g id="node3" class="node"><title>N2</title>
<polygon fill="none" stroke="black" points="547.25,-1516 346.75,-1516 346.75,-1472 547.25,-1472 547.25,-1516"/>
<text text-anchor="middle" x="447" y="-1503.12" font-family="Times,serif" font-size="11.10">github.com/gpaul/go&#45;perf&#45;demo.FillBlock</text>
<text text-anchor="end" x="539.5" y="-1491.12" font-family="Times,serif" font-size="11.10">2 (0.4%)</text>
<text text-anchor="end" x="539.5" y="-1479.12" font-family="Times,serif" font-size="11.10">of 480 (92.7%)</text>
</g>
<!-- N1&#45;&gt;N2 -->
<g id="edge19" class="edge"><title>N1&#45;&gt;N2</title>
<path fill="none" stroke="black" stroke-width="2" d="M447,-1568.49C447,-1556.77 447,-1540.65 447,-1526.5"/>
<polygon fill="black" stroke="black" points="450.5,-1526.17 447,-1516.17 443.5,-1526.17 450.5,-1526.17"/>
<text text-anchor="middle" x="457.5" y="-1538.3" font-family="Times,serif" font-size="14.00">480</text>
</g>
<!-- N9 -->
<g id="node10" class="node"><title>N9</title>
<polygon fill="none" stroke="black" points="544,-1140 260,-1140 260,-1054 544,-1054 544,-1140"/>
<text text-anchor="middle" x="402" y="-1107.84" font-family="Times,serif" font-size="35.20">runtime.memmove</text>
<text text-anchor="end" x="536" y="-1068.84" font-family="Times,serif" font-size="35.20">153 (29.5%)</text>
</g>
<!-- N2&#45;&gt;N9 -->
<g id="edge3" class="edge"><title>N2&#45;&gt;N9</title>
<path fill="none" stroke="black" d="M356.754,-1471.86C330.035,-1460.95 303.74,-1444.55 288,-1420 270.404,-1392.56 243.387,-1288.52 289,-1192 297.171,-1174.71 310.241,-1159.49 324.641,-1146.61"/>
<polygon fill="black" stroke="black" points="326.946,-1149.24 332.274,-1140.08 322.398,-1143.92 326.946,-1149.24"/>
<text text-anchor="middle" x="272" y="-1328.3" font-family="Times,serif" font-size="14.00">10</text>
</g>
<!-- N15 -->
<g id="node16" class="node"><title>N15</title>
<polygon fill="none" stroke="black" points="240.25,-1406.5 165.75,-1406.5 165.75,-1371.5 240.25,-1371.5 240.25,-1406.5"/>
<text text-anchor="middle" x="203" y="-1396.1" font-family="Times,serif" font-size="8.00">runtime.growslice</text>
<text text-anchor="end" x="232.5" y="-1387.1" font-family="Times,serif" font-size="8.00">0 (0.0%)</text>
<text text-anchor="end" x="232.5" y="-1378.1" font-family="Times,serif" font-size="8.00">of 52 (10.0%)</text>
</g>
<!-- N2&#45;&gt;N15 -->
<g id="edge35" class="edge"><title>N2&#45;&gt;N15</title>
<path fill="none" stroke="black" d="M346.734,-1481.88C303.349,-1475.49 258.515,-1466.27 241,-1454 227.799,-1444.75 218.441,-1429.32 212.315,-1415.93"/>
<polygon fill="black" stroke="black" points="215.519,-1414.52 208.417,-1406.66 209.066,-1417.23 215.519,-1414.52"/>
<text text-anchor="middle" x="248" y="-1442.3" font-family="Times,serif" font-size="14.00">52</text>
</g>
<!-- N6 -->
<g id="node7" class="node"><title>N6</title>
<polygon fill="none" stroke="black" points="597,-1420 297,-1420 297,-1358 597,-1358 597,-1420"/>
<text text-anchor="middle" x="447" y="-1403.04" font-family="Times,serif" font-size="16.20">github.com/gpaul/go&#45;perf&#45;demo.tupleBytes</text>
<text text-anchor="end" x="589" y="-1385.04" font-family="Times,serif" font-size="16.20">14 (2.7%)</text>
<text text-anchor="end" x="589" y="-1367.04" font-family="Times,serif" font-size="16.20">of 416 (80.3%)</text>
</g>
<!-- N2&#45;&gt;N6 -->
<g id="edge37" class="edge"><title>N2&#45;&gt;N6</title>
<path fill="none" stroke="black" stroke-width="2" d="M447,-1471.66C447,-1459.71 447,-1444.42 447,-1430.3"/>
<polygon fill="black" stroke="black" points="450.5,-1430.3 447,-1420.3 443.5,-1430.3 450.5,-1430.3"/>
<text text-anchor="middle" x="457.5" y="-1442.3" font-family="Times,serif" font-size="14.00">416</text>
</g>
<!-- N3 -->
<g id="node4" class="node"><title>N3</title>
<polygon fill="none" stroke="black" points="483.25,-1918.5 410.75,-1918.5 410.75,-1883.5 483.25,-1883.5 483.25,-1918.5"/>
<text text-anchor="middle" x="447" y="-1908.1" font-family="Times,serif" font-size="8.00">runtime.gosched0</text>
<text text-anchor="end" x="475.5" y="-1899.1" font-family="Times,serif" font-size="8.00">0 (0.0%)</text>
<text text-anchor="end" x="475.5" y="-1890.1" font-family="Times,serif" font-size="8.00">of 480 (92.7%)</text>
</g>
<!-- N4 -->
<g id="node5" class="node"><title>N4</title>
<polygon fill="none" stroke="black" points="486,-1779.5 408,-1779.5 408,-1744.5 486,-1744.5 486,-1779.5"/>
<text text-anchor="middle" x="447" y="-1769.1" font-family="Times,serif" font-size="8.00">testing.(*B).launch</text>
<text text-anchor="end" x="478" y="-1760.1" font-family="Times,serif" font-size="8.00">0 (0.0%)</text>
<text text-anchor="end" x="478" y="-1751.1" font-family="Times,serif" font-size="8.00">of 480 (92.7%)</text>
</g>
<!-- N3&#45;&gt;N4 -->
<g id="edge18" class="edge"><title>N3&#45;&gt;N4</title>
<path fill="none" stroke="black" stroke-width="2" d="M447,-1883.47C447,-1860.23 447,-1817.61 447,-1789.8"/>
<polygon fill="black" stroke="black" points="450.5,-1789.58 447,-1779.58 443.5,-1789.58 450.5,-1789.58"/>
<text text-anchor="middle" x="457.5" y="-1802.3" font-family="Times,serif" font-size="14.00">480</text>
</g>
<!-- N5 -->
<g id="node6" class="node"><title>N5</title>
<polygon fill="none" stroke="black" points="484,-1691.5 410,-1691.5 410,-1656.5 484,-1656.5 484,-1691.5"/>
<text text-anchor="middle" x="447" y="-1681.1" font-family="Times,serif" font-size="8.00">testing.(*B).runN</text>
<text text-anchor="end" x="476" y="-1672.1" font-family="Times,serif" font-size="8.00">0 (0.0%)</text>
<text text-anchor="end" x="476" y="-1663.1" font-family="Times,serif" font-size="8.00">of 480 (92.7%)</text>
</g>
<!-- N4&#45;&gt;N5 -->
<g id="edge2" class="edge"><title>N4&#45;&gt;N5</title>
<path fill="none" stroke="black" stroke-width="2" d="M447,-1744.42C447,-1732.28 447,-1715.56 447,-1701.58"/>
<polygon fill="black" stroke="black" points="450.5,-1701.53 447,-1691.53 443.5,-1701.53 450.5,-1701.53"/>
<text text-anchor="middle" x="457.5" y="-1714.3" font-family="Times,serif" font-size="14.00">480</text>
</g>
<!-- N5&#45;&gt;N1 -->
<g id="edge29" class="edge"><title>N5&#45;&gt;N1</title>
<path fill="none" stroke="black" stroke-width="2" d="M447,-1656.42C447,-1644.28 447,-1627.56 447,-1613.58"/>
<polygon fill="black" stroke="black" points="450.5,-1613.53 447,-1603.53 443.5,-1613.53 450.5,-1613.53"/>
<text text-anchor="middle" x="457.5" y="-1626.3" font-family="Times,serif" font-size="14.00">480</text>
</g>
<!-- N7 -->
<g id="node8" class="node"><title>N7</title>
<polygon fill="none" stroke="black" points="506.25,-1305.5 297.75,-1305.5 297.75,-1192.5 506.25,-1192.5 506.25,-1305.5"/>
<text text-anchor="middle" x="402" y="-1276.3" font-family="Times,serif" font-size="31.50">bytes.Repeat</text>
<text text-anchor="end" x="498.5" y="-1241.3" font-family="Times,serif" font-size="31.50">114 (22.0%)</text>
<text text-anchor="end" x="498.5" y="-1206.3" font-family="Times,serif" font-size="31.50">of 293 (56.6%)</text>
</g>
<!-- N6&#45;&gt;N7 -->
<g id="edge9" class="edge"><title>N6&#45;&gt;N7</title>
<path fill="none" stroke="black" stroke-width="2" d="M437.125,-1357.72C433.028,-1345.15 428.107,-1330.06 423.262,-1315.2"/>
<polygon fill="black" stroke="black" points="426.527,-1313.93 420.099,-1305.5 419.872,-1316.1 426.527,-1313.93"/>
<text text-anchor="middle" x="441.5" y="-1328.3" font-family="Times,serif" font-size="14.00">293</text>
</g>
<!-- N8 -->
<g id="node9" class="node"><title>N8</title>
<polygon fill="none" stroke="black" points="741.25,-1137 562.75,-1137 562.75,-1057 741.25,-1057 741.25,-1137"/>
<text text-anchor="middle" x="652" y="-1115.48" font-family="Times,serif" font-size="21.90">runtime.makeslice</text>
<text text-anchor="end" x="733.5" y="-1091.48" font-family="Times,serif" font-size="21.90">40 (7.7%)</text>
<text text-anchor="end" x="733.5" y="-1067.48" font-family="Times,serif" font-size="21.90">of 169 (32.6%)</text>
</g>
<!-- N6&#45;&gt;N8 -->
<g id="edge17" class="edge"><title>N6&#45;&gt;N8</title>
<path fill="none" stroke="black" stroke-width="1.06564" d="M597.031,-1383.08C722.618,-1375.42 887.881,-1355.87 930,-1306 962.691,-1267.29 959.537,-1233.17 930,-1192 889.697,-1135.83 814.012,-1112.79 751.778,-1103.55"/>
<polygon fill="black" stroke="black" points="751.903,-1100.04 741.517,-1102.13 750.944,-1106.97 751.903,-1100.04"/>
<text text-anchor="middle" x="960" y="-1245.3" font-family="Times,serif" font-size="14.00">92</text>
</g>
<!-- N27 -->
<g id="node28" class="node"><title>N27</title>
<polygon fill="none" stroke="black" points="921.25,-1269 568.75,-1269 568.75,-1229 921.25,-1229 921.25,-1269"/>
<text text-anchor="middle" x="745" y="-1253.08" font-family="Times,serif" font-size="14.90">github.com/gpaul/go&#45;perf&#45;demo.PutLittleEndianUint64</text>
<text text-anchor="end" x="913.5" y="-1237.08" font-family="Times,serif" font-size="14.90">10 (1.9%)</text>
</g>
<!-- N6&#45;&gt;N27 -->
<g id="edge22" class="edge"><title>N6&#45;&gt;N27</title>
<path fill="none" stroke="black" d="M516.993,-1357.9C530.314,-1352.04 544.115,-1345.89 557,-1340 604.932,-1318.08 659.181,-1291.97 697.041,-1273.53"/>
<polygon fill="black" stroke="black" points="698.846,-1276.54 706.3,-1269.01 695.778,-1270.25 698.846,-1276.54"/>
<text text-anchor="middle" x="594" y="-1328.3" font-family="Times,serif" font-size="14.00">10</text>
</g>
<!-- N6&#45;&gt;N9 -->
<g id="edge32" class="edge"><title>N6&#45;&gt;N9</title>
<path fill="none" stroke="black" d="M479.349,-1357.85C492.68,-1343.49 506.881,-1325.26 515,-1306 540.669,-1245.12 564.36,-1213.81 529,-1158 526.614,-1154.23 523.921,-1150.7 520.978,-1147.38"/>
<polygon fill="black" stroke="black" points="523.21,-1144.67 513.681,-1140.04 518.244,-1149.6 523.21,-1144.67"/>
<text text-anchor="middle" x="549.5" y="-1245.3" font-family="Times,serif" font-size="14.00">7</text>
</g>
<!-- N7&#45;&gt;N9 -->
<g id="edge11" class="edge"><title>N7&#45;&gt;N9</title>
<path fill="none" stroke="black" stroke-width="1.18147" d="M402,-1192.15C402,-1178.47 402,-1163.89 402,-1150.38"/>
<polygon fill="black" stroke="black" points="405.5,-1150.3 402,-1140.3 398.5,-1150.3 405.5,-1150.3"/>
<text text-anchor="middle" x="412.5" y="-1162.3" font-family="Times,serif" font-size="14.00">102</text>
</g>
<!-- N7&#45;&gt;N8 -->
<g id="edge15" class="edge"><title>N7&#45;&gt;N8</title>
<path fill="none" stroke="black" d="M494.736,-1192.36C522.202,-1175.88 551.899,-1158.06 578.011,-1142.39"/>
<polygon fill="black" stroke="black" points="579.947,-1145.31 586.721,-1137.17 576.345,-1139.31 579.947,-1145.31"/>
<text text-anchor="middle" x="556" y="-1162.3" font-family="Times,serif" font-size="14.00">77</text>
</g>
<!-- N10 -->
<g id="node11" class="node"><title>N10</title>
<polygon fill="none" stroke="black" points="700.25,-1002 603.75,-1002 603.75,-952 700.25,-952 700.25,-1002"/>
<text text-anchor="middle" x="652" y="-987.68" font-family="Times,serif" font-size="12.90">makeslice1</text>
<text text-anchor="end" x="692.5" y="-973.68" font-family="Times,serif" font-size="12.90">5 (1.0%)</text>
<text text-anchor="end" x="692.5" y="-959.68" font-family="Times,serif" font-size="12.90">of 147 (28.4%)</text>
</g>
<!-- N8&#45;&gt;N10 -->
<g id="edge31" class="edge"><title>N8&#45;&gt;N10</title>
<path fill="none" stroke="black" stroke-width="1.49421" d="M652,-1056.71C652,-1042.39 652,-1026.32 652,-1012.46"/>
<polygon fill="black" stroke="black" points="655.5,-1012.35 652,-1002.35 648.5,-1012.35 655.5,-1012.35"/>
<text text-anchor="middle" x="662.5" y="-1024.3" font-family="Times,serif" font-size="14.00">129</text>
</g>
<!-- N11 -->
<g id="node12" class="node"><title>N11</title>
<polygon fill="none" stroke="black" points="699.25,-899.5 604.75,-899.5 604.75,-858.5 699.25,-858.5 699.25,-899.5"/>
<text text-anchor="middle" x="652" y="-887.34" font-family="Times,serif" font-size="10.20">runtime.cnewarray</text>
<text text-anchor="end" x="691.5" y="-876.34" font-family="Times,serif" font-size="10.20">1 (0.2%)</text>
<text text-anchor="end" x="691.5" y="-865.34" font-family="Times,serif" font-size="10.20">of 142 (27.4%)</text>
</g>
<!-- N10&#45;&gt;N11 -->
<g id="edge30" class="edge"><title>N10&#45;&gt;N11</title>
<path fill="none" stroke="black" stroke-width="1.64479" d="M652,-951.775C652,-939.065 652,-923.379 652,-909.916"/>
<polygon fill="black" stroke="black" points="655.5,-909.695 652,-899.695 648.5,-909.695 655.5,-909.695"/>
<text text-anchor="middle" x="662.5" y="-922.3" font-family="Times,serif" font-size="14.00">142</text>
</g>
<!-- N12 -->
<g id="node13" class="node"><title>N12</title>
<polygon fill="none" stroke="black" points="723.25,-805.5 580.75,-805.5 580.75,-728.5 723.25,-728.5 723.25,-805.5"/>
<text text-anchor="middle" x="652" y="-784.86" font-family="Times,serif" font-size="20.80">cnew</text>
<text text-anchor="end" x="715.5" y="-761.86" font-family="Times,serif" font-size="20.80">34 (6.6%)</text>
<text text-anchor="end" x="715.5" y="-738.86" font-family="Times,serif" font-size="20.80">of 141 (27.2%)</text>
</g>
<!-- N11&#45;&gt;N12 -->
<g id="edge38" class="edge"><title>N11&#45;&gt;N12</title>
<path fill="none" stroke="black" stroke-width="1.63321" d="M652,-858.334C652,-846.485 652,-830.841 652,-815.906"/>
<polygon fill="black" stroke="black" points="655.5,-815.735 652,-805.736 648.5,-815.736 655.5,-815.735"/>
<text text-anchor="middle" x="662.5" y="-828.3" font-family="Times,serif" font-size="14.00">141</text>
</g>
<!-- N13 -->
<g id="node14" class="node"><title>N13</title>
<polygon fill="none" stroke="black" points="722.25,-675.5 581.75,-675.5 581.75,-610.5 722.25,-610.5 722.25,-675.5"/>
<text text-anchor="middle" x="652" y="-657.42" font-family="Times,serif" font-size="17.60">runtime.mallocgc</text>
<text text-anchor="end" x="714.5" y="-638.42" font-family="Times,serif" font-size="17.60">19 (3.7%)</text>
<text text-anchor="end" x="714.5" y="-619.42" font-family="Times,serif" font-size="17.60">of 107 (20.7%)</text>
</g>
<!-- N12&#45;&gt;N13 -->
<g id="edge24" class="edge"><title>N12&#45;&gt;N13</title>
<path fill="none" stroke="black" stroke-width="1.23938" d="M652,-728.4C652,-714.899 652,-699.595 652,-685.761"/>
<polygon fill="black" stroke="black" points="655.5,-685.523 652,-675.523 648.5,-685.523 655.5,-685.523"/>
<text text-anchor="middle" x="662.5" y="-698.3" font-family="Times,serif" font-size="14.00">107</text>
</g>
<!-- N17 -->
<g id="node18" class="node"><title>N17</title>
<polygon fill="none" stroke="black" points="614.25,-547.5 521.75,-547.5 521.75,-512.5 614.25,-512.5 614.25,-547.5"/>
<text text-anchor="middle" x="568" y="-537.1" font-family="Times,serif" font-size="8.00">runtime.MCache_Refill</text>
<text text-anchor="end" x="606.5" y="-528.1" font-family="Times,serif" font-size="8.00">0 (0.0%)</text>
<text text-anchor="end" x="606.5" y="-519.1" font-family="Times,serif" font-size="8.00">of 50 (9.7%)</text>
</g>
<!-- N13&#45;&gt;N17 -->
<g id="edge8" class="edge"><title>N13&#45;&gt;N17</title>
<path fill="none" stroke="black" d="M628.154,-610.489C615.139,-593.291 599.246,-572.289 587.064,-556.192"/>
<polygon fill="black" stroke="black" points="589.546,-553.672 580.721,-547.81 583.964,-557.896 589.546,-553.672"/>
<text text-anchor="middle" x="619" y="-580.3" font-family="Times,serif" font-size="14.00">50</text>
</g>
<!-- N24 -->
<g id="node25" class="node"><title>N24</title>
<polygon fill="none" stroke="black" points="773,-558 633,-558 633,-502 773,-502 773,-558"/>
<text text-anchor="middle" x="703" y="-542.64" font-family="Times,serif" font-size="14.20">runtime.markallocated</text>
<text text-anchor="end" x="765" y="-526.64" font-family="Times,serif" font-size="14.20">8 (1.5%)</text>
<text text-anchor="end" x="765" y="-510.64" font-family="Times,serif" font-size="14.20">of 20 (3.9%)</text>
</g>
<!-- N13&#45;&gt;N24 -->
<g id="edge23" class="edge"><title>N13&#45;&gt;N24</title>
<path fill="none" stroke="black" d="M666.478,-610.489C672.651,-597.053 679.892,-581.294 686.291,-567.367"/>
<polygon fill="black" stroke="black" points="689.568,-568.617 690.563,-558.069 683.207,-565.695 689.568,-568.617"/>
<text text-anchor="middle" x="689" y="-580.3" font-family="Times,serif" font-size="14.00">20</text>
</g>
<!-- N16 -->
<g id="node17" class="node"><title>N16</title>
<polygon fill="none" stroke="black" points="753.25,-247.5 642.75,-247.5 642.75,-206.5 753.25,-206.5 753.25,-247.5"/>
<text text-anchor="middle" x="698" y="-235.34" font-family="Times,serif" font-size="10.20">runtime.MHeap_Alloc</text>
<text text-anchor="end" x="745.5" y="-224.34" font-family="Times,serif" font-size="10.20">1 (0.2%)</text>
<text text-anchor="end" x="745.5" y="-213.34" font-family="Times,serif" font-size="10.20">of 51 (9.8%)</text>
</g>
<!-- N13&#45;&gt;N16 -->
<g id="edge26" class="edge"><title>N13&#45;&gt;N16</title>
<path fill="none" stroke="black" d="M722.573,-619.267C761.085,-601.974 801,-573.741 801,-531 801,-531 801,-531 801,-327 801,-294.8 774.511,-269.799 748.399,-252.975"/>
<polygon fill="black" stroke="black" points="749.953,-249.823 739.597,-247.585 746.297,-255.792 749.953,-249.823"/>
<text text-anchor="middle" x="808" y="-425.3" font-family="Times,serif" font-size="14.00">18</text>
</g>
<!-- N14 -->
<g id="node15" class="node"><title>N14</title>
<polygon fill="none" stroke="black" points="238,-1266.5 176,-1266.5 176,-1231.5 238,-1231.5 238,-1266.5"/>
<text text-anchor="middle" x="207" y="-1256.1" font-family="Times,serif" font-size="8.00">growslice1</text>
<text text-anchor="end" x="230" y="-1247.1" font-family="Times,serif" font-size="8.00">0 (0.0%)</text>
<text text-anchor="end" x="230" y="-1238.1" font-family="Times,serif" font-size="8.00">of 52 (10.0%)</text>
</g>
<!-- N14&#45;&gt;N10 -->
<g id="edge27" class="edge"><title>N14&#45;&gt;N10</title>
<path fill="none" stroke="black" d="M203.856,-1231.23C197.897,-1193.78 189.475,-1102.86 237,-1054 285.573,-1004.06 491.086,-986.376 593.497,-980.584"/>
<polygon fill="black" stroke="black" points="593.879,-984.068 603.673,-980.028 593.497,-977.079 593.879,-984.068"/>
<text text-anchor="middle" x="244" y="-1093.3" font-family="Times,serif" font-size="14.00">18</text>
</g>
<!-- N14&#45;&gt;N9 -->
<g id="edge33" class="edge"><title>N14&#45;&gt;N9</title>
<path fill="none" stroke="black" d="M209.061,-1231.49C212.388,-1211.54 220.759,-1178.15 241,-1158 245.266,-1153.75 249.86,-1149.8 254.703,-1146.13"/>
<polygon fill="black" stroke="black" points="256.935,-1148.84 263.076,-1140.2 252.892,-1143.12 256.935,-1148.84"/>
<text text-anchor="middle" x="248" y="-1162.3" font-family="Times,serif" font-size="14.00">34</text>
</g>
<!-- N15&#45;&gt;N14 -->
<g id="edge28" class="edge"><title>N15&#45;&gt;N14</title>
<path fill="none" stroke="black" d="M203.482,-1371.35C204.161,-1347.94 205.406,-1305.01 206.218,-1276.99"/>
<polygon fill="black" stroke="black" points="209.724,-1276.8 206.516,-1266.71 202.727,-1276.6 209.724,-1276.8"/>
<text text-anchor="middle" x="211" y="-1328.3" font-family="Times,serif" font-size="14.00">52</text>
</g>
<!-- N21 -->
<g id="node22" class="node"><title>N21</title>
<polygon fill="none" stroke="black" points="772,-154 624,-154 624,-98 772,-98 772,-154"/>
<text text-anchor="middle" x="698" y="-138.08" font-family="Times,serif" font-size="14.90">MHeap_AllocLocked</text>
<text text-anchor="end" x="764" y="-122.08" font-family="Times,serif" font-size="14.90">10 (1.9%)</text>
<text text-anchor="end" x="764" y="-106.08" font-family="Times,serif" font-size="14.90">of 28 (5.4%)</text>
</g>
<!-- N16&#45;&gt;N21 -->
<g id="edge6" class="edge"><title>N16&#45;&gt;N21</title>
<path fill="none" stroke="black" d="M698,-206.441C698,-194.379 698,-178.518 698,-164.143"/>
<polygon fill="black" stroke="black" points="701.5,-164.013 698,-154.013 694.5,-164.013 701.5,-164.013"/>
<text text-anchor="middle" x="705" y="-176.3" font-family="Times,serif" font-size="14.00">28</text>
</g>
<!-- N23 -->
<g id="node24" class="node"><title>N23</title>
<polygon fill="none" stroke="black" points="924,-150 790,-150 790,-102 924,-102 924,-150"/>
<text text-anchor="middle" x="857" y="-131.36" font-family="Times,serif" font-size="18.30">runtime.memclr</text>
<text text-anchor="end" x="916" y="-111.36" font-family="Times,serif" font-size="18.30">22 (4.2%)</text>
</g>
<!-- N16&#45;&gt;N23 -->
<g id="edge34" class="edge"><title>N16&#45;&gt;N23</title>
<path fill="none" stroke="black" d="M729.413,-206.441C752.75,-191.911 784.941,-171.867 811.149,-155.549"/>
<polygon fill="black" stroke="black" points="813.147,-158.428 819.786,-150.171 809.447,-152.486 813.147,-158.428"/>
<text text-anchor="middle" x="789" y="-176.3" font-family="Times,serif" font-size="14.00">22</text>
</g>
<!-- N18 -->
<g id="node19" class="node"><title>N18</title>
<polygon fill="none" stroke="black" points="622.25,-446.5 513.75,-446.5 513.75,-411.5 622.25,-411.5 622.25,-446.5"/>
<text text-anchor="middle" x="568" y="-436.1" font-family="Times,serif" font-size="8.00">runtime.MCentral_AllocList</text>
<text text-anchor="end" x="614.5" y="-427.1" font-family="Times,serif" font-size="8.00">0 (0.0%)</text>
<text text-anchor="end" x="614.5" y="-418.1" font-family="Times,serif" font-size="8.00">of 50 (9.7%)</text>
</g>
<!-- N17&#45;&gt;N18 -->
<g id="edge25" class="edge"><title>N17&#45;&gt;N18</title>
<path fill="none" stroke="black" d="M568,-512.206C568,-497.039 568,-474.456 568,-456.796"/>
<polygon fill="black" stroke="black" points="571.5,-456.546 568,-446.546 564.5,-456.546 571.5,-456.546"/>
<text text-anchor="middle" x="575" y="-472.3" font-family="Times,serif" font-size="14.00">50</text>
</g>
<!-- N31 -->
<g id="node32" class="node"><title>N31</title>
<polygon fill="none" stroke="black" points="457,-348.5 387,-348.5 387,-307.5 457,-307.5 457,-348.5"/>
<text text-anchor="middle" x="422" y="-336.34" font-family="Times,serif" font-size="10.20">runtime.lock</text>
<text text-anchor="end" x="449" y="-325.34" font-family="Times,serif" font-size="10.20">1 (0.2%)</text>
<text text-anchor="end" x="449" y="-314.34" font-family="Times,serif" font-size="10.20">of 3 (0.6%)</text>
</g>
<!-- N18&#45;&gt;N31 -->
<g id="edge10" class="edge"><title>N18&#45;&gt;N31</title>
<path fill="none" stroke="black" d="M513.735,-415.176C496.671,-409.385 478.513,-401.242 464,-390 452.851,-381.364 443.546,-368.931 436.551,-357.54"/>
<polygon fill="black" stroke="black" points="439.485,-355.621 431.446,-348.72 433.427,-359.128 439.485,-355.621"/>
<text text-anchor="middle" x="467.5" y="-378.3" font-family="Times,serif" font-size="14.00">2</text>
</g>
<!-- N19 -->
<g id="node20" class="node"><title>N19</title>
<polygon fill="none" stroke="black" points="622.25,-356 513.75,-356 513.75,-300 622.25,-300 622.25,-356"/>
<text text-anchor="middle" x="568" y="-340.64" font-family="Times,serif" font-size="14.20">MCentral_Grow</text>
<text text-anchor="end" x="614.5" y="-324.64" font-family="Times,serif" font-size="14.20">8 (1.5%)</text>
<text text-anchor="end" x="614.5" y="-308.64" font-family="Times,serif" font-size="14.20">of 47 (9.1%)</text>
</g>
<!-- N18&#45;&gt;N19 -->
<g id="edge14" class="edge"><title>N18&#45;&gt;N19</title>
<path fill="none" stroke="black" d="M568,-411.206C568,-399.014 568,-382.031 568,-366.665"/>
<polygon fill="black" stroke="black" points="571.5,-366.363 568,-356.363 564.5,-366.364 571.5,-366.363"/>
<text text-anchor="middle" x="575" y="-378.3" font-family="Times,serif" font-size="14.00">47</text>
</g>
<!-- N25 -->
<g id="node26" class="node"><title>N25</title>
<polygon fill="none" stroke="black" points="808.25,-46 587.75,-46 587.75,-0 808.25,-0 808.25,-46"/>
<text text-anchor="middle" x="698" y="-28.16" font-family="Times,serif" font-size="17.30">runtime.MSpanList_IsEmpty</text>
<text text-anchor="end" x="800.5" y="-9.16" font-family="Times,serif" font-size="17.30">18 (3.5%)</text>
</g>
<!-- N18&#45;&gt;N25 -->
<g id="edge21" class="edge"><title>N18&#45;&gt;N25</title>
<path fill="none" stroke="black" d="M541.281,-411.491C517.018,-394.215 485,-364.662 485,-329 485,-329 485,-329 485,-125 485,-77.1359 529.455,-51.9254 577.747,-38.6596"/>
<polygon fill="black" stroke="black" points="578.633,-42.0456 587.445,-36.1625 576.888,-35.2668 578.633,-42.0456"/>
<text text-anchor="middle" x="488.5" y="-223.3" font-family="Times,serif" font-size="14.00">1</text>
</g>
<!-- N19&#45;&gt;N16 -->
<g id="edge7" class="edge"><title>N19&#45;&gt;N16</title>
<path fill="none" stroke="black" d="M603.523,-299.948C622.299,-285.65 645.237,-268.181 663.81,-254.037"/>
<polygon fill="black" stroke="black" points="666.17,-256.639 672.005,-247.796 661.929,-251.07 666.17,-256.639"/>
<text text-anchor="middle" x="651" y="-270.3" font-family="Times,serif" font-size="14.00">33</text>
</g>
<!-- N28 -->
<g id="node29" class="node"><title>N28</title>
<polygon fill="none" stroke="black" points="624,-246 510,-246 510,-208 624,-208 624,-246"/>
<text text-anchor="middle" x="567" y="-231.28" font-family="Times,serif" font-size="13.40">runtime.markspan</text>
<text text-anchor="end" x="616" y="-216.28" font-family="Times,serif" font-size="13.40">6 (1.2%)</text>
</g>
<!-- N19&#45;&gt;N28 -->
<g id="edge36" class="edge"><title>N19&#45;&gt;N28</title>
<path fill="none" stroke="black" d="M567.727,-299.948C567.591,-286.486 567.426,-270.214 567.288,-256.552"/>
<polygon fill="black" stroke="black" points="570.785,-256.223 567.184,-246.259 563.786,-256.294 570.785,-256.223"/>
<text text-anchor="middle" x="570.5" y="-270.3" font-family="Times,serif" font-size="14.00">6</text>
</g>
<!-- N20 -->
<g id="node21" class="node"><title>N20</title>
<polygon fill="none" stroke="black" points="272,-446.5 214,-446.5 214,-411.5 272,-411.5 272,-446.5"/>
<text text-anchor="middle" x="243" y="-436.1" font-family="Times,serif" font-size="8.00">System</text>
<text text-anchor="end" x="264" y="-427.1" font-family="Times,serif" font-size="8.00">0 (0.0%)</text>
<text text-anchor="end" x="264" y="-418.1" font-family="Times,serif" font-size="8.00">of 38 (7.3%)</text>
</g>
<!-- N29 -->
<g id="node30" class="node"><title>N29</title>
<polygon fill="none" stroke="black" points="212,-246 124,-246 124,-208 212,-208 212,-246"/>
<text text-anchor="middle" x="168" y="-231.28" font-family="Times,serif" font-size="13.40">runtime.xchg</text>
<text text-anchor="end" x="204" y="-216.28" font-family="Times,serif" font-size="13.40">6 (1.2%)</text>
</g>
<!-- N20&#45;&gt;N29 -->
<g id="edge1" class="edge"><title>N20&#45;&gt;N29</title>
<path fill="none" stroke="black" d="M221.373,-411.32C206.05,-398.132 186.578,-378.277 177,-356 163.234,-323.983 162.932,-283.295 164.779,-256.491"/>
<polygon fill="black" stroke="black" points="168.289,-256.519 165.635,-246.262 161.313,-255.935 168.289,-256.519"/>
<text text-anchor="middle" x="180.5" y="-324.3" font-family="Times,serif" font-size="14.00">4</text>
</g>
<!-- N20&#45;&gt;N31 -->
<g id="edge4" class="edge"><title>N20&#45;&gt;N31</title>
<path fill="none" stroke="black" d="M272.245,-413.052C299.778,-398.827 342.043,-376.596 378,-356 379.137,-355.349 380.288,-354.683 381.448,-354.008"/>
<polygon fill="black" stroke="black" points="383.593,-356.806 390.413,-348.698 380.025,-350.783 383.593,-356.806"/>
<text text-anchor="middle" x="348.5" y="-378.3" font-family="Times,serif" font-size="14.00">1</text>
</g>
<!-- N22 -->
<g id="node23" class="node"><title>N22</title>
<polygon fill="none" stroke="black" points="292.25,-353 193.75,-353 193.75,-303 292.25,-303 292.25,-353"/>
<text text-anchor="middle" x="243" y="-333.96" font-family="Times,serif" font-size="18.80">sweepspan</text>
<text text-anchor="end" x="284.5" y="-312.96" font-family="Times,serif" font-size="18.80">24 (4.6%)</text>
</g>
<!-- N20&#45;&gt;N22 -->
<g id="edge5" class="edge"><title>N20&#45;&gt;N22</title>
<path fill="none" stroke="black" d="M243,-411.206C243,-398.173 243,-379.665 243,-363.509"/>
<polygon fill="black" stroke="black" points="246.5,-363.313 243,-353.313 239.5,-363.313 246.5,-363.313"/>
<text text-anchor="middle" x="250" y="-378.3" font-family="Times,serif" font-size="14.00">24</text>
</g>
<!-- N30 -->
<g id="node31" class="node"><title>N30</title>
<polygon fill="none" stroke="black" points="369,-345 311,-345 311,-311 369,-311 369,-345"/>
<text text-anchor="middle" x="340" y="-331.56" font-family="Times,serif" font-size="11.80">etext</text>
<text text-anchor="end" x="361" y="-318.56" font-family="Times,serif" font-size="11.80">3 (0.6%)</text>
</g>
<!-- N20&#45;&gt;N30 -->
<g id="edge16" class="edge"><title>N20&#45;&gt;N30</title>
<path fill="none" stroke="black" d="M259.455,-411.206C275.251,-395.084 299.257,-370.583 316.954,-352.521"/>
<polygon fill="black" stroke="black" points="319.611,-354.81 324.11,-345.218 314.611,-349.911 319.611,-354.81"/>
<text text-anchor="middle" x="297.5" y="-378.3" font-family="Times,serif" font-size="14.00">3</text>
</g>
<!-- N21&#45;&gt;N25 -->
<g id="edge12" class="edge"><title>N21&#45;&gt;N25</title>
<path fill="none" stroke="black" d="M698,-97.9339C698,-85.1161 698,-69.7105 698,-56.2871"/>
<polygon fill="black" stroke="black" points="701.5,-56.0342 698,-46.0342 694.5,-56.0343 701.5,-56.0342"/>
<text text-anchor="middle" x="705" y="-68.3" font-family="Times,serif" font-size="14.00">17</text>
</g>
<!-- N26 -->
<g id="node27" class="node"><title>N26</title>
<polygon fill="none" stroke="black" points="750.25,-450 655.75,-450 655.75,-408 750.25,-408 750.25,-450"/>
<text text-anchor="middle" x="703" y="-433.52" font-family="Times,serif" font-size="15.60">runtime.casp</text>
<text text-anchor="end" x="742.5" y="-416.52" font-family="Times,serif" font-size="15.60">12 (2.3%)</text>
</g>
<!-- N24&#45;&gt;N26 -->
<g id="edge13" class="edge"><title>N24&#45;&gt;N26</title>
<path fill="none" stroke="black" d="M703,-501.948C703,-489.028 703,-473.52 703,-460.215"/>
<polygon fill="black" stroke="black" points="706.5,-460.109 703,-450.109 699.5,-460.109 706.5,-460.109"/>
<text text-anchor="middle" x="710" y="-472.3" font-family="Times,serif" font-size="14.00">12</text>
</g>
<!-- N31&#45;&gt;N29 -->
<g id="edge20" class="edge"><title>N31&#45;&gt;N29</title>
<path fill="none" stroke="black" d="M391.709,-307.228C387.2,-304.635 382.54,-302.139 378,-300 326.732,-275.843 265.075,-255.682 221.878,-242.897"/>
<polygon fill="black" stroke="black" points="222.714,-239.495 212.133,-240.045 220.748,-246.213 222.714,-239.495"/>
<text text-anchor="middle" x="336.5" y="-270.3" font-family="Times,serif" font-size="14.00">2</text>
</g>
</g>
</g></svg>
