<?xml version="1.0" encoding="UTF-8" standalone="no"?>
<!DOCTYPE svg PUBLIC "-//W3C//DTD SVG 1.1//EN"
 "http://www.w3.org/Graphics/SVG/1.1/DTD/svg11.dtd">
<!-- Generated by graphviz version 2.30.1 (20140110.0959)
 -->
<!-- Title: ./go&#45;perf&#45;demo.test; 589 samples Pages: 1 -->
<svg width="100%" height="100%"
  xmlns="http://www.w3.org/2000/svg" xmlns:xlink="http://www.w3.org/1999/xlink">
<script type="text/ecmascript"><![CDATA[
// SVGPan
// http://www.cyberz.org/blog/2009/12/08/svgpan-a-javascript-svg-panzoomdrag-library/
// Local modification: if(true || ...) below to force panning, never moving.
// Local modification: add clamping to fix bug in handleMouseWheel.

/**
 *  SVGPan library 1.2
 * ====================
 *
 * Given an unique existing element with id "viewport", including the
 * the library into any SVG adds the following capabilities:
 *
 *  - Mouse panning
 *  - Mouse zooming (using the wheel)
 *  - Object dargging
 *
 * Known issues:
 *
 *  - Zooming (while panning) on Safari has still some issues
 *
 * Releases:
 *
 * 1.2, Sat Mar 20 08:42:50 GMT 2010, Zeng Xiaohui
 *	Fixed a bug with browser mouse handler interaction
 *
 * 1.1, Wed Feb  3 17:39:33 GMT 2010, Zeng Xiaohui
 *	Updated the zoom code to support the mouse wheel on Safari/Chrome
 *
 * 1.0, Andrea Leofreddi
 *	First release
 *
 * This code is licensed under the following BSD license:
 *
 * Copyright 2009-2010 Andrea Leofreddi <a.leofreddi@itcharm.com>. All rights reserved.
 *
 * Redistribution and use in source and binary forms, with or without modification, are
 * permitted provided that the following conditions are met:
 *
 *    1. Redistributions of source code must retain the above copyright notice, this list of
 *       conditions and the following disclaimer.
 *
 *    2. Redistributions in binary form must reproduce the above copyright notice, this list
 *       of conditions and the following disclaimer in the documentation and/or other materials
 *       provided with the distribution.
 *
 * THIS SOFTWARE IS PROVIDED BY Andrea Leofreddi ``AS IS'' AND ANY EXPRESS OR IMPLIED
 * WARRANTIES, INCLUDING, BUT NOT LIMITED TO, THE IMPLIED WARRANTIES OF MERCHANTABILITY AND
 * FITNESS FOR A PARTICULAR PURPOSE ARE DISCLAIMED. IN NO EVENT SHALL Andrea Leofreddi OR
 * CONTRIBUTORS BE LIABLE FOR ANY DIRECT, INDIRECT, INCIDENTAL, SPECIAL, EXEMPLARY, OR
 * CONSEQUENTIAL DAMAGES (INCLUDING, BUT NOT LIMITED TO, PROCUREMENT OF SUBSTITUTE GOODS OR
 * SERVICES; LOSS OF USE, DATA, OR PROFITS; OR BUSINESS INTERRUPTION) HOWEVER CAUSED AND ON
 * ANY THEORY OF LIABILITY, WHETHER IN CONTRACT, STRICT LIABILITY, OR TORT (INCLUDING
 * NEGLIGENCE OR OTHERWISE) ARISING IN ANY WAY OUT OF THE USE OF THIS SOFTWARE, EVEN IF
 * ADVISED OF THE POSSIBILITY OF SUCH DAMAGE.
 *
 * The views and conclusions contained in the software and documentation are those of the
 * authors and should not be interpreted as representing official policies, either expressed
 * or implied, of Andrea Leofreddi.
 */

var root = document.documentElement;

var state = 'none', stateTarget, stateOrigin, stateTf;

setupHandlers(root);

/**
 * Register handlers
 */
function setupHandlers(root){
	setAttributes(root, {
		"onmouseup" : "add(evt)",
		"onmousedown" : "handleMouseDown(evt)",
		"onmousemove" : "handleMouseMove(evt)",
		"onmouseup" : "handleMouseUp(evt)",
		//"onmouseout" : "handleMouseUp(evt)", // Decomment this to stop the pan functionality when dragging out of the SVG element
	});

	if(navigator.userAgent.toLowerCase().indexOf('webkit') >= 0)
		window.addEventListener('mousewheel', handleMouseWheel, false); // Chrome/Safari
	else
		window.addEventListener('DOMMouseScroll', handleMouseWheel, false); // Others

	var g = svgDoc.getElementById("svg");
	g.width = "100%";
	g.height = "100%";
}

/**
 * Instance an SVGPoint object with given event coordinates.
 */
function getEventPoint(evt) {
	var p = root.createSVGPoint();

	p.x = evt.clientX;
	p.y = evt.clientY;

	return p;
}

/**
 * Sets the current transform matrix of an element.
 */
function setCTM(element, matrix) {
	var s = "matrix(" + matrix.a + "," + matrix.b + "," + matrix.c + "," + matrix.d + "," + matrix.e + "," + matrix.f + ")";

	element.setAttribute("transform", s);
}

/**
 * Dumps a matrix to a string (useful for debug).
 */
function dumpMatrix(matrix) {
	var s = "[ " + matrix.a + ", " + matrix.c + ", " + matrix.e + "\n  " + matrix.b + ", " + matrix.d + ", " + matrix.f + "\n  0, 0, 1 ]";

	return s;
}

/**
 * Sets attributes of an element.
 */
function setAttributes(element, attributes){
	for (i in attributes)
		element.setAttributeNS(null, i, attributes[i]);
}

/**
 * Handle mouse move event.
 */
function handleMouseWheel(evt) {
	if(evt.preventDefault)
		evt.preventDefault();

	evt.returnValue = false;

	var svgDoc = evt.target.ownerDocument;

	var delta;

	if(evt.wheelDelta)
		delta = evt.wheelDelta / 3600; // Chrome/Safari
	else
		delta = evt.detail / -90; // Mozilla

	var z = 1 + delta; // Zoom factor: 0.9/1.1

	// Clamp to reasonable values.
	// The 0.1 check is important because
	// a very large scroll can turn into a
	// negative z, which rotates the image 180 degrees.
	if(z < 0.1)
		z = 0.1;
	if(z > 10.0)
		z = 10.0;

	var g = svgDoc.getElementById("viewport");

	var p = getEventPoint(evt);

	p = p.matrixTransform(g.getCTM().inverse());

	// Compute new scale matrix in current mouse position
	var k = root.createSVGMatrix().translate(p.x, p.y).scale(z).translate(-p.x, -p.y);

        setCTM(g, g.getCTM().multiply(k));

	stateTf = stateTf.multiply(k.inverse());
}

/**
 * Handle mouse move event.
 */
function handleMouseMove(evt) {
	if(evt.preventDefault)
		evt.preventDefault();

	evt.returnValue = false;

	var svgDoc = evt.target.ownerDocument;

	var g = svgDoc.getElementById("viewport");

	if(state == 'pan') {
		// Pan mode
		var p = getEventPoint(evt).matrixTransform(stateTf);

		setCTM(g, stateTf.inverse().translate(p.x - stateOrigin.x, p.y - stateOrigin.y));
	} else if(state == 'move') {
		// Move mode
		var p = getEventPoint(evt).matrixTransform(g.getCTM().inverse());

		setCTM(stateTarget, root.createSVGMatrix().translate(p.x - stateOrigin.x, p.y - stateOrigin.y).multiply(g.getCTM().inverse()).multiply(stateTarget.getCTM()));

		stateOrigin = p;
	}
}

/**
 * Handle click event.
 */
function handleMouseDown(evt) {
	if(evt.preventDefault)
		evt.preventDefault();

	evt.returnValue = false;

	var svgDoc = evt.target.ownerDocument;

	var g = svgDoc.getElementById("viewport");

	if(true || evt.target.tagName == "svg") {
		// Pan mode
		state = 'pan';

		stateTf = g.getCTM().inverse();

		stateOrigin = getEventPoint(evt).matrixTransform(stateTf);
	} else {
		// Move mode
		state = 'move';

		stateTarget = evt.target;

		stateTf = g.getCTM().inverse();

		stateOrigin = getEventPoint(evt).matrixTransform(stateTf);
	}
}

/**
 * Handle mouse button release event.
 */
function handleMouseUp(evt) {
	if(evt.preventDefault)
		evt.preventDefault();

	evt.returnValue = false;

	var svgDoc = evt.target.ownerDocument;

	if(state == 'pan' || state == 'move') {
		// Quit pan mode
		state = '';
	}
}

]]></script>
<g id="viewport" transform="translate(0,0)">
<g id="viewport" class="graph" transform="scale(1 1) rotate(0) translate(4 1978)">
<title>./go&#45;perf&#45;demo.test; 589 samples</title>
<polygon fill="white" stroke="white" points="-4,5 -4,-1978 1113,-1978 1113,5 -4,5"/>
<!-- Legend -->
<g id="node1" class="node"><title>Legend</title>
<text text-anchor="start" x="8" y="-1950.8" font-family="Times,serif" font-size="24.00">./go&#45;perf&#45;demo.test</text>
<text text-anchor="start" x="8" y="-1924.8" font-family="Times,serif" font-size="24.00">Total samples: 589</text>
<text text-anchor="start" x="8" y="-1898.8" font-family="Times,serif" font-size="24.00">Focusing on: 589</text>
<text text-anchor="start" x="8" y="-1872.8" font-family="Times,serif" font-size="24.00">Dropped nodes with &lt;= 2 abs(samples)</text>
<text text-anchor="start" x="8" y="-1846.8" font-family="Times,serif" font-size="24.00">Dropped edges with &lt;= 0 samples</text>
</g>
<!-- N1 -->
<g id="node2" class="node"><title>N1</title>
<polygon fill="none" stroke="black" points="540.25,-1607.5 353.75,-1607.5 353.75,-1572.5 540.25,-1572.5 540.25,-1607.5"/>
<text text-anchor="middle" x="447" y="-1597.1" font-family="Times,serif" font-size="8.00">github.com/gpaul/go&#45;perf&#45;demo.BenchmarkFillBlock</text>
<text text-anchor="end" x="532.5" y="-1588.1" font-family="Times,serif" font-size="8.00">0 (0.0%)</text>
<text text-anchor="end" x="532.5" y="-1579.1" font-family="Times,serif" font-size="8.00">of 538 (91.3%)</text>
</g>
<!-- N2 -->
<g id="node3" class="node"><title>N2</title>
<polygon fill="none" stroke="black" points="522,-1519.5 372,-1519.5 372,-1484.5 522,-1484.5 522,-1519.5"/>
<text text-anchor="middle" x="447" y="-1509.1" font-family="Times,serif" font-size="8.00">github.com/gpaul/go&#45;perf&#45;demo.FillBlock</text>
<text text-anchor="end" x="514" y="-1500.1" font-family="Times,serif" font-size="8.00">0 (0.0%)</text>
<text text-anchor="end" x="514" y="-1491.1" font-family="Times,serif" font-size="8.00">of 538 (91.3%)</text>
</g>
<!-- N1&#45;&gt;N2 -->
<g id="edge18" class="edge"><title>N1&#45;&gt;N2</title>
<path fill="none" stroke="black" stroke-width="2" d="M447,-1572.42C447,-1560.28 447,-1543.56 447,-1529.58"/>
<polygon fill="black" stroke="black" points="450.5,-1529.53 447,-1519.53 443.5,-1529.53 450.5,-1529.53"/>
<text text-anchor="middle" x="457.5" y="-1542.3" font-family="Times,serif" font-size="14.00">538</text>
</g>
<!-- N8 -->
<g id="node9" class="node"><title>N8</title>
<polygon fill="none" stroke="black" points="683.25,-1044 386.75,-1044 386.75,-956 683.25,-956 683.25,-1044"/>
<text text-anchor="middle" x="535" y="-1010.56" font-family="Times,serif" font-size="36.80">runtime.memmove</text>
<text text-anchor="end" x="675.5" y="-970.56" font-family="Times,serif" font-size="36.80">196 (33.3%)</text>
</g>
<!-- N2&#45;&gt;N8 -->
<g id="edge3" class="edge"><title>N2&#45;&gt;N8</title>
<path fill="none" stroke="black" d="M371.924,-1497.02C259.382,-1488.97 60,-1465.72 60,-1402 60,-1402 60,-1402 60,-1125 60,-1058.17 238.257,-1026.69 376.371,-1012.32"/>
<polygon fill="black" stroke="black" points="377.066,-1015.77 386.661,-1011.27 376.358,-1008.8 377.066,-1015.77"/>
<text text-anchor="middle" x="63.5" y="-1259.3" font-family="Times,serif" font-size="14.00">7</text>
</g>
<!-- N9 -->
<g id="node10" class="node"><title>N9</title>
<polygon fill="none" stroke="black" points="251,-1292.5 123,-1292.5 123,-1233.5 251,-1233.5 251,-1292.5"/>
<text text-anchor="middle" x="187" y="-1276.42" font-family="Times,serif" font-size="15.10">runtime.growslice</text>
<text text-anchor="end" x="243" y="-1259.42" font-family="Times,serif" font-size="15.10">12 (2.0%)</text>
<text text-anchor="end" x="243" y="-1242.42" font-family="Times,serif" font-size="15.10">of 192 (32.6%)</text>
</g>
<!-- N2&#45;&gt;N9 -->
<g id="edge33" class="edge"><title>N2&#45;&gt;N9</title>
<path fill="none" stroke="black" d="M375.537,-1484.38C342.256,-1473.79 303.94,-1457.18 276,-1432 236.728,-1396.6 211.756,-1339.72 198.565,-1302.11"/>
<polygon fill="black" stroke="black" points="201.838,-1300.86 195.31,-1292.51 195.209,-1303.11 201.838,-1300.86"/>
<text text-anchor="middle" x="283" y="-1397.3" font-family="Times,serif" font-size="14.00">95</text>
</g>
<!-- N6 -->
<g id="node7" class="node"><title>N6</title>
<polygon fill="none" stroke="black" points="595,-1432 299,-1432 299,-1370 595,-1370 595,-1432"/>
<text text-anchor="middle" x="447" y="-1415.2" font-family="Times,serif" font-size="16.00">github.com/gpaul/go&#45;perf&#45;demo.tupleBytes</text>
<text text-anchor="end" x="587" y="-1397.2" font-family="Times,serif" font-size="16.00">15 (2.5%)</text>
<text text-anchor="end" x="587" y="-1379.2" font-family="Times,serif" font-size="16.00">of 436 (74.0%)</text>
</g>
<!-- N2&#45;&gt;N6 -->
<g id="edge35" class="edge"><title>N2&#45;&gt;N6</title>
<path fill="none" stroke="black" stroke-width="2" d="M447,-1484.21C447,-1472.75 447,-1457.07 447,-1442.47"/>
<polygon fill="black" stroke="black" points="450.5,-1442.11 447,-1432.11 443.5,-1442.11 450.5,-1442.11"/>
<text text-anchor="middle" x="457.5" y="-1454.3" font-family="Times,serif" font-size="14.00">436</text>
</g>
<!-- N3 -->
<g id="node4" class="node"><title>N3</title>
<polygon fill="none" stroke="black" points="483.25,-1922.5 410.75,-1922.5 410.75,-1887.5 483.25,-1887.5 483.25,-1922.5"/>
<text text-anchor="middle" x="447" y="-1912.1" font-family="Times,serif" font-size="8.00">runtime.gosched0</text>
<text text-anchor="end" x="475.5" y="-1903.1" font-family="Times,serif" font-size="8.00">0 (0.0%)</text>
<text text-anchor="end" x="475.5" y="-1894.1" font-family="Times,serif" font-size="8.00">of 538 (91.3%)</text>
</g>
<!-- N4 -->
<g id="node5" class="node"><title>N4</title>
<polygon fill="none" stroke="black" points="486,-1783.5 408,-1783.5 408,-1748.5 486,-1748.5 486,-1783.5"/>
<text text-anchor="middle" x="447" y="-1773.1" font-family="Times,serif" font-size="8.00">testing.(*B).launch</text>
<text text-anchor="end" x="478" y="-1764.1" font-family="Times,serif" font-size="8.00">0 (0.0%)</text>
<text text-anchor="end" x="478" y="-1755.1" font-family="Times,serif" font-size="8.00">of 538 (91.3%)</text>
</g>
<!-- N3&#45;&gt;N4 -->
<g id="edge17" class="edge"><title>N3&#45;&gt;N4</title>
<path fill="none" stroke="black" stroke-width="2" d="M447,-1887.47C447,-1864.23 447,-1821.61 447,-1793.8"/>
<polygon fill="black" stroke="black" points="450.5,-1793.58 447,-1783.58 443.5,-1793.58 450.5,-1793.58"/>
<text text-anchor="middle" x="457.5" y="-1806.3" font-family="Times,serif" font-size="14.00">538</text>
</g>
<!-- N5 -->
<g id="node6" class="node"><title>N5</title>
<polygon fill="none" stroke="black" points="484,-1695.5 410,-1695.5 410,-1660.5 484,-1660.5 484,-1695.5"/>
<text text-anchor="middle" x="447" y="-1685.1" font-family="Times,serif" font-size="8.00">testing.(*B).runN</text>
<text text-anchor="end" x="476" y="-1676.1" font-family="Times,serif" font-size="8.00">0 (0.0%)</text>
<text text-anchor="end" x="476" y="-1667.1" font-family="Times,serif" font-size="8.00">of 538 (91.3%)</text>
</g>
<!-- N4&#45;&gt;N5 -->
<g id="edge2" class="edge"><title>N4&#45;&gt;N5</title>
<path fill="none" stroke="black" stroke-width="2" d="M447,-1748.42C447,-1736.28 447,-1719.56 447,-1705.58"/>
<polygon fill="black" stroke="black" points="450.5,-1705.53 447,-1695.53 443.5,-1705.53 450.5,-1705.53"/>
<text text-anchor="middle" x="457.5" y="-1718.3" font-family="Times,serif" font-size="14.00">538</text>
</g>
<!-- N5&#45;&gt;N1 -->
<g id="edge26" class="edge"><title>N5&#45;&gt;N1</title>
<path fill="none" stroke="black" stroke-width="2" d="M447,-1660.42C447,-1648.28 447,-1631.56 447,-1617.58"/>
<polygon fill="black" stroke="black" points="450.5,-1617.53 447,-1607.53 443.5,-1617.53 450.5,-1617.53"/>
<text text-anchor="middle" x="457.5" y="-1630.3" font-family="Times,serif" font-size="14.00">538</text>
</g>
<!-- N7 -->
<g id="node8" class="node"><title>N7</title>
<polygon fill="none" stroke="black" points="849,-1318 643,-1318 643,-1208 849,-1208 849,-1318"/>
<text text-anchor="middle" x="746" y="-1289.36" font-family="Times,serif" font-size="30.80">bytes.Repeat</text>
<text text-anchor="end" x="841" y="-1255.36" font-family="Times,serif" font-size="30.80">123 (20.9%)</text>
<text text-anchor="end" x="841" y="-1221.36" font-family="Times,serif" font-size="30.80">of 310 (52.6%)</text>
</g>
<!-- N6&#45;&gt;N7 -->
<g id="edge9" class="edge"><title>N6&#45;&gt;N7</title>
<path fill="none" stroke="black" stroke-width="2" d="M517.419,-1369.83C550.241,-1355.6 589.988,-1338.14 633.572,-1318.17"/>
<polygon fill="black" stroke="black" points="635.303,-1321.22 642.929,-1313.87 632.381,-1314.86 635.303,-1321.22"/>
<text text-anchor="middle" x="603.5" y="-1340.3" font-family="Times,serif" font-size="14.00">310</text>
</g>
<!-- N6&#45;&gt;N9 -->
<g id="edge16" class="edge"><title>N6&#45;&gt;N9</title>
<path fill="none" stroke="black" d="M367.752,-1369.86C333.727,-1355.76 294.048,-1337.72 260,-1318 250.083,-1312.25 239.911,-1305.42 230.429,-1298.57"/>
<polygon fill="black" stroke="black" points="232.424,-1295.69 222.297,-1292.58 228.272,-1301.33 232.424,-1295.69"/>
<text text-anchor="middle" x="331" y="-1340.3" font-family="Times,serif" font-size="14.00">97</text>
</g>
<!-- N27 -->
<g id="node28" class="node"><title>N27</title>
<polygon fill="none" stroke="black" points="625,-1284 269,-1284 269,-1242 625,-1242 625,-1284"/>
<text text-anchor="middle" x="447" y="-1267.92" font-family="Times,serif" font-size="15.10">github.com/gpaul/go&#45;perf&#45;demo.PutLittleEndianUint64</text>
<text text-anchor="end" x="617" y="-1250.92" font-family="Times,serif" font-size="15.10">12 (2.0%)</text>
</g>
<!-- N6&#45;&gt;N27 -->
<g id="edge19" class="edge"><title>N6&#45;&gt;N27</title>
<path fill="none" stroke="black" d="M447,-1369.82C447,-1347.39 447,-1316.91 447,-1294.43"/>
<polygon fill="black" stroke="black" points="450.5,-1294.41 447,-1284.41 443.5,-1294.41 450.5,-1294.41"/>
<text text-anchor="middle" x="454" y="-1340.3" font-family="Times,serif" font-size="14.00">12</text>
</g>
<!-- N6&#45;&gt;N8 -->
<g id="edge30" class="edge"><title>N6&#45;&gt;N8</title>
<path fill="none" stroke="black" d="M308.278,-1369.91C219.769,-1350.04 120.438,-1326.22 114,-1318 83.8451,-1279.52 88.159,-1249.5 114,-1208 171.385,-1115.84 283.152,-1063.53 377.11,-1034.56"/>
<polygon fill="black" stroke="black" points="378.163,-1037.9 386.724,-1031.66 376.139,-1031.2 378.163,-1037.9"/>
<text text-anchor="middle" x="140.5" y="-1178.3" font-family="Times,serif" font-size="14.00">2</text>
</g>
<!-- N7&#45;&gt;N8 -->
<g id="edge10" class="edge"><title>N7&#45;&gt;N8</title>
<path fill="none" stroke="black" stroke-width="1.03905" d="M691.19,-1207.92C676.93,-1192.05 662.391,-1174.09 651,-1156 626.897,-1117.73 639.267,-1098.09 612,-1062 609.266,-1058.38 606.269,-1054.86 603.093,-1051.44"/>
<polygon fill="black" stroke="black" points="605.41,-1048.81 595.888,-1044.16 600.434,-1053.73 605.41,-1048.81"/>
<text text-anchor="middle" x="661.5" y="-1122.3" font-family="Times,serif" font-size="14.00">102</text>
</g>
<!-- N15 -->
<g id="node16" class="node"><title>N15</title>
<polygon fill="none" stroke="black" points="811,-1155.5 681,-1155.5 681,-1096.5 811,-1096.5 811,-1155.5"/>
<text text-anchor="middle" x="746" y="-1139.18" font-family="Times,serif" font-size="15.40">runtime.makeslice</text>
<text text-anchor="end" x="803" y="-1122.18" font-family="Times,serif" font-size="15.40">13 (2.2%)</text>
<text text-anchor="end" x="803" y="-1105.18" font-family="Times,serif" font-size="15.40">of 85 (14.4%)</text>
</g>
<!-- N7&#45;&gt;N15 -->
<g id="edge14" class="edge"><title>N7&#45;&gt;N15</title>
<path fill="none" stroke="black" d="M746,-1207.87C746,-1193.74 746,-1178.81 746,-1165.67"/>
<polygon fill="black" stroke="black" points="749.5,-1165.56 746,-1155.56 742.5,-1165.56 749.5,-1165.56"/>
<text text-anchor="middle" x="753" y="-1178.3" font-family="Times,serif" font-size="14.00">85</text>
</g>
<!-- N10 -->
<g id="node11" class="node"><title>N10</title>
<polygon fill="none" stroke="black" points="573.25,-1146.5 496.75,-1146.5 496.75,-1105.5 573.25,-1105.5 573.25,-1146.5"/>
<text text-anchor="middle" x="535" y="-1134.42" font-family="Times,serif" font-size="10.10">growslice1</text>
<text text-anchor="end" x="565.5" y="-1123.42" font-family="Times,serif" font-size="10.10">1 (0.2%)</text>
<text text-anchor="end" x="565.5" y="-1112.42" font-family="Times,serif" font-size="10.10">of 180 (30.6%)</text>
</g>
<!-- N9&#45;&gt;N10 -->
<g id="edge27" class="edge"><title>N9&#45;&gt;N10</title>
<path fill="none" stroke="black" stroke-width="1.83362" d="M220.657,-1233.27C232.513,-1224.21 246.31,-1214.81 260,-1208 334.88,-1170.75 429.946,-1147.5 486.434,-1135.92"/>
<polygon fill="black" stroke="black" points="487.405,-1139.3 496.519,-1133.9 486.026,-1132.43 487.405,-1139.3"/>
<text text-anchor="middle" x="349.5" y="-1178.3" font-family="Times,serif" font-size="14.00">180</text>
</g>
<!-- N11 -->
<g id="node12" class="node"><title>N11</title>
<polygon fill="none" stroke="black" points="790.25,-1023.5 701.75,-1023.5 701.75,-976.5 790.25,-976.5 790.25,-1023.5"/>
<text text-anchor="middle" x="746" y="-1009.82" font-family="Times,serif" font-size="12.10">makeslice1</text>
<text text-anchor="end" x="782.5" y="-996.82" font-family="Times,serif" font-size="12.10">4 (0.7%)</text>
<text text-anchor="end" x="782.5" y="-983.82" font-family="Times,serif" font-size="12.10">of 166 (28.2%)</text>
</g>
<!-- N10&#45;&gt;N11 -->
<g id="edge24" class="edge"><title>N10&#45;&gt;N11</title>
<path fill="none" stroke="black" d="M573.271,-1107.85C605.798,-1092.67 653.248,-1069.08 692,-1044 698.65,-1039.7 705.465,-1034.75 711.918,-1029.78"/>
<polygon fill="black" stroke="black" points="714.175,-1032.45 719.857,-1023.51 709.838,-1026.96 714.175,-1032.45"/>
<text text-anchor="middle" x="665" y="-1066.3" font-family="Times,serif" font-size="14.00">94</text>
</g>
<!-- N10&#45;&gt;N8 -->
<g id="edge31" class="edge"><title>N10&#45;&gt;N8</title>
<path fill="none" stroke="black" d="M535,-1105.35C535,-1091.59 535,-1072.49 535,-1054.39"/>
<polygon fill="black" stroke="black" points="538.5,-1054.18 535,-1044.18 531.5,-1054.18 538.5,-1054.18"/>
<text text-anchor="middle" x="542" y="-1066.3" font-family="Times,serif" font-size="14.00">85</text>
</g>
<!-- N12 -->
<g id="node13" class="node"><title>N12</title>
<polygon fill="none" stroke="black" points="794,-904 698,-904 698,-860 794,-860 794,-904"/>
<text text-anchor="middle" x="746" y="-891.28" font-family="Times,serif" font-size="10.90">runtime.cnewarray</text>
<text text-anchor="end" x="786" y="-879.28" font-family="Times,serif" font-size="10.90">2 (0.3%)</text>
<text text-anchor="end" x="786" y="-867.28" font-family="Times,serif" font-size="10.90">of 162 (27.5%)</text>
</g>
<!-- N11&#45;&gt;N12 -->
<g id="edge28" class="edge"><title>N11&#45;&gt;N12</title>
<path fill="none" stroke="black" stroke-width="1.65026" d="M746,-976.359C746,-958.668 746,-933.88 746,-914.292"/>
<polygon fill="black" stroke="black" points="749.5,-914.022 746,-904.022 742.5,-914.023 749.5,-914.022"/>
<text text-anchor="middle" x="756.5" y="-926.3" font-family="Times,serif" font-size="14.00">162</text>
</g>
<!-- N13 -->
<g id="node14" class="node"><title>N13</title>
<polygon fill="none" stroke="black" points="813,-807.5 679,-807.5 679,-736.5 813,-736.5 813,-807.5"/>
<text text-anchor="middle" x="746" y="-788.06" font-family="Times,serif" font-size="19.30">cnew</text>
<text text-anchor="end" x="805" y="-767.06" font-family="Times,serif" font-size="19.30">30 (5.1%)</text>
<text text-anchor="end" x="805" y="-746.06" font-family="Times,serif" font-size="19.30">of 160 (27.2%)</text>
</g>
<!-- N12&#45;&gt;N13 -->
<g id="edge36" class="edge"><title>N12&#45;&gt;N13</title>
<path fill="none" stroke="black" stroke-width="1.62988" d="M746,-859.92C746,-847.966 746,-832.531 746,-817.993"/>
<polygon fill="black" stroke="black" points="749.5,-817.628 746,-807.628 742.5,-817.628 749.5,-817.628"/>
<text text-anchor="middle" x="756.5" y="-830.3" font-family="Times,serif" font-size="14.00">160</text>
</g>
<!-- N14 -->
<g id="node15" class="node"><title>N14</title>
<polygon fill="none" stroke="black" points="819,-683.5 673,-683.5 673,-612.5 819,-612.5 819,-683.5"/>
<text text-anchor="middle" x="746" y="-664.54" font-family="Times,serif" font-size="18.70">runtime.mallocgc</text>
<text text-anchor="end" x="811" y="-643.54" font-family="Times,serif" font-size="18.70">27 (4.6%)</text>
<text text-anchor="end" x="811" y="-622.54" font-family="Times,serif" font-size="18.70">of 130 (22.1%)</text>
</g>
<!-- N13&#45;&gt;N14 -->
<g id="edge23" class="edge"><title>N13&#45;&gt;N14</title>
<path fill="none" stroke="black" stroke-width="1.32428" d="M746,-736.366C746,-723.23 746,-708.074 746,-694.112"/>
<polygon fill="black" stroke="black" points="749.5,-693.721 746,-683.721 742.5,-693.721 749.5,-693.721"/>
<text text-anchor="middle" x="756.5" y="-706.3" font-family="Times,serif" font-size="14.00">130</text>
</g>
<!-- N17 -->
<g id="node18" class="node"><title>N17</title>
<polygon fill="none" stroke="black" points="792.25,-549.5 699.75,-549.5 699.75,-514.5 792.25,-514.5 792.25,-549.5"/>
<text text-anchor="middle" x="746" y="-539.1" font-family="Times,serif" font-size="8.00">runtime.MCache_Refill</text>
<text text-anchor="end" x="784.5" y="-530.1" font-family="Times,serif" font-size="8.00">0 (0.0%)</text>
<text text-anchor="end" x="784.5" y="-521.1" font-family="Times,serif" font-size="8.00">of 65 (11.0%)</text>
</g>
<!-- N14&#45;&gt;N17 -->
<g id="edge8" class="edge"><title>N14&#45;&gt;N17</title>
<path fill="none" stroke="black" d="M746,-612.487C746,-595.555 746,-575.47 746,-559.726"/>
<polygon fill="black" stroke="black" points="749.5,-559.612 746,-549.612 742.5,-559.612 749.5,-559.612"/>
<text text-anchor="middle" x="753" y="-582.3" font-family="Times,serif" font-size="14.00">65</text>
</g>
<!-- N22 -->
<g id="node23" class="node"><title>N22</title>
<polygon fill="none" stroke="black" points="961,-560 811,-560 811,-504 961,-504 961,-560"/>
<text text-anchor="middle" x="886" y="-544.16" font-family="Times,serif" font-size="14.80">runtime.markallocated</text>
<text text-anchor="end" x="953" y="-528.16" font-family="Times,serif" font-size="14.80">11 (1.9%)</text>
<text text-anchor="end" x="953" y="-512.16" font-family="Times,serif" font-size="14.80">of 25 (4.2%)</text>
</g>
<!-- N14&#45;&gt;N22 -->
<g id="edge21" class="edge"><title>N14&#45;&gt;N22</title>
<path fill="none" stroke="black" d="M788.385,-612.487C806.251,-597.938 826.976,-581.062 844.722,-566.612"/>
<polygon fill="black" stroke="black" points="847.1,-569.189 852.644,-560.161 842.68,-563.761 847.1,-569.189"/>
<text text-anchor="middle" x="835" y="-582.3" font-family="Times,serif" font-size="14.00">25</text>
</g>
<!-- N19 -->
<g id="node20" class="node"><title>N19</title>
<polygon fill="none" stroke="black" points="790.25,-250.5 701.75,-250.5 701.75,-215.5 790.25,-215.5 790.25,-250.5"/>
<text text-anchor="middle" x="746" y="-240.1" font-family="Times,serif" font-size="8.00">runtime.MHeap_Alloc</text>
<text text-anchor="end" x="782.5" y="-231.1" font-family="Times,serif" font-size="8.00">0 (0.0%)</text>
<text text-anchor="end" x="782.5" y="-222.1" font-family="Times,serif" font-size="8.00">of 63 (10.7%)</text>
</g>
<!-- N14&#45;&gt;N19 -->
<g id="edge22" class="edge"><title>N14&#45;&gt;N19</title>
<path fill="none" stroke="black" d="M700.971,-612.444C679.742,-592.03 659,-564.121 659,-533 659,-533 659,-533 659,-330 659,-298.95 684.298,-273.472 707.611,-256.585"/>
<polygon fill="black" stroke="black" points="709.815,-259.317 716.06,-250.758 705.84,-253.554 709.815,-259.317"/>
<text text-anchor="middle" x="666" y="-427.3" font-family="Times,serif" font-size="14.00">13</text>
</g>
<!-- N15&#45;&gt;N11 -->
<g id="edge29" class="edge"><title>N15&#45;&gt;N11</title>
<path fill="none" stroke="black" d="M746,-1096.24C746,-1077.65 746,-1053.39 746,-1034.01"/>
<polygon fill="black" stroke="black" points="749.5,-1033.82 746,-1023.82 742.5,-1033.82 749.5,-1033.82"/>
<text text-anchor="middle" x="753" y="-1066.3" font-family="Times,serif" font-size="14.00">72</text>
</g>
<!-- N16 -->
<g id="node17" class="node"><title>N16</title>
<polygon fill="none" stroke="black" points="799,-357.5 693,-357.5 693,-304.5 799,-304.5 799,-357.5"/>
<text text-anchor="middle" x="746" y="-342.7" font-family="Times,serif" font-size="13.50">MCentral_Grow</text>
<text text-anchor="end" x="791" y="-327.7" font-family="Times,serif" font-size="13.50">7 (1.2%)</text>
<text text-anchor="end" x="791" y="-312.7" font-family="Times,serif" font-size="13.50">of 65 (11.0%)</text>
</g>
<!-- N16&#45;&gt;N19 -->
<g id="edge7" class="edge"><title>N16&#45;&gt;N19</title>
<path fill="none" stroke="black" d="M746,-304.274C746,-290.864 746,-274.473 746,-260.895"/>
<polygon fill="black" stroke="black" points="749.5,-260.72 746,-250.72 742.5,-260.72 749.5,-260.72"/>
<text text-anchor="middle" x="753" y="-274.3" font-family="Times,serif" font-size="14.00">50</text>
</g>
<!-- N29 -->
<g id="node30" class="node"><title>N29</title>
<polygon fill="none" stroke="black" points="923.25,-252 808.75,-252 808.75,-214 923.25,-214 923.25,-252"/>
<text text-anchor="middle" x="866" y="-237.2" font-family="Times,serif" font-size="13.50">runtime.markspan</text>
<text text-anchor="end" x="915.5" y="-222.2" font-family="Times,serif" font-size="13.50">7 (1.2%)</text>
</g>
<!-- N16&#45;&gt;N29 -->
<g id="edge34" class="edge"><title>N16&#45;&gt;N29</title>
<path fill="none" stroke="black" d="M778.158,-304.274C795.818,-290.146 817.612,-272.71 835.074,-258.741"/>
<polygon fill="black" stroke="black" points="837.639,-261.171 843.261,-252.191 833.266,-255.705 837.639,-261.171"/>
<text text-anchor="middle" x="823.5" y="-274.3" font-family="Times,serif" font-size="14.00">7</text>
</g>
<!-- N18 -->
<g id="node19" class="node"><title>N18</title>
<polygon fill="none" stroke="black" points="800.25,-448.5 691.75,-448.5 691.75,-413.5 800.25,-413.5 800.25,-448.5"/>
<text text-anchor="middle" x="746" y="-438.1" font-family="Times,serif" font-size="8.00">runtime.MCentral_AllocList</text>
<text text-anchor="end" x="792.5" y="-429.1" font-family="Times,serif" font-size="8.00">0 (0.0%)</text>
<text text-anchor="end" x="792.5" y="-420.1" font-family="Times,serif" font-size="8.00">of 65 (11.0%)</text>
</g>
<!-- N17&#45;&gt;N18 -->
<g id="edge25" class="edge"><title>N17&#45;&gt;N18</title>
<path fill="none" stroke="black" d="M746,-514.206C746,-499.039 746,-476.456 746,-458.796"/>
<polygon fill="black" stroke="black" points="749.5,-458.546 746,-448.546 742.5,-458.546 749.5,-458.546"/>
<text text-anchor="middle" x="753" y="-474.3" font-family="Times,serif" font-size="14.00">65</text>
</g>
<!-- N18&#45;&gt;N16 -->
<g id="edge13" class="edge"><title>N18&#45;&gt;N16</title>
<path fill="none" stroke="black" d="M746,-413.376C746,-400.952 746,-383.503 746,-367.947"/>
<polygon fill="black" stroke="black" points="749.5,-367.564 746,-357.564 742.5,-367.564 749.5,-367.564"/>
<text text-anchor="middle" x="753" y="-380.3" font-family="Times,serif" font-size="14.00">65</text>
</g>
<!-- N21 -->
<g id="node22" class="node"><title>N21</title>
<polygon fill="none" stroke="black" points="827,-162 665,-162 665,-100 827,-100 827,-162"/>
<text text-anchor="middle" x="746" y="-144.64" font-family="Times,serif" font-size="16.70">MHeap_AllocLocked</text>
<text text-anchor="end" x="819" y="-126.64" font-family="Times,serif" font-size="16.70">18 (3.1%)</text>
<text text-anchor="end" x="819" y="-108.64" font-family="Times,serif" font-size="16.70">of 42 (7.1%)</text>
</g>
<!-- N19&#45;&gt;N21 -->
<g id="edge5" class="edge"><title>N19&#45;&gt;N21</title>
<path fill="none" stroke="black" d="M746,-215.487C746,-203.768 746,-187.507 746,-172.447"/>
<polygon fill="black" stroke="black" points="749.5,-172.283 746,-162.283 742.5,-172.283 749.5,-172.283"/>
<text text-anchor="middle" x="753" y="-184.3" font-family="Times,serif" font-size="14.00">42</text>
</g>
<!-- N25 -->
<g id="node26" class="node"><title>N25</title>
<polygon fill="none" stroke="black" points="1049,-154 921,-154 921,-108 1049,-108 1049,-154"/>
<text text-anchor="middle" x="985" y="-136.08" font-family="Times,serif" font-size="17.40">runtime.memclr</text>
<text text-anchor="end" x="1041" y="-117.08" font-family="Times,serif" font-size="17.40">21 (3.6%)</text>
</g>
<!-- N19&#45;&gt;N25 -->
<g id="edge32" class="edge"><title>N19&#45;&gt;N25</title>
<path fill="none" stroke="black" d="M785.466,-215.487C822.769,-199.879 879.329,-176.214 922.716,-158.06"/>
<polygon fill="black" stroke="black" points="924.167,-161.247 932.042,-154.158 921.466,-154.789 924.167,-161.247"/>
<text text-anchor="middle" x="872" y="-184.3" font-family="Times,serif" font-size="14.00">21</text>
</g>
<!-- N20 -->
<g id="node21" class="node"><title>N20</title>
<polygon fill="none" stroke="black" points="903,-148.5 845,-148.5 845,-113.5 903,-113.5 903,-148.5"/>
<text text-anchor="middle" x="874" y="-138.1" font-family="Times,serif" font-size="8.00">System</text>
<text text-anchor="end" x="895" y="-129.1" font-family="Times,serif" font-size="8.00">0 (0.0%)</text>
<text text-anchor="end" x="895" y="-120.1" font-family="Times,serif" font-size="8.00">of 51 (8.7%)</text>
</g>
<!-- N28 -->
<g id="node29" class="node"><title>N28</title>
<polygon fill="none" stroke="black" points="1108.25,-43 1019.75,-43 1019.75,-5 1108.25,-5 1108.25,-43"/>
<text text-anchor="middle" x="1064" y="-27.96" font-family="Times,serif" font-size="13.80">runtime.xchg</text>
<text text-anchor="end" x="1100.5" y="-12.96" font-family="Times,serif" font-size="13.80">8 (1.4%)</text>
</g>
<!-- N20&#45;&gt;N28 -->
<g id="edge1" class="edge"><title>N20&#45;&gt;N28</title>
<path fill="none" stroke="black" d="M893.536,-113.301C899.302,-108.729 905.746,-103.95 912,-100 943.879,-79.8654 981.925,-61.0974 1011.98,-47.372"/>
<polygon fill="black" stroke="black" points="1013.77,-50.4051 1021.44,-43.0976 1010.88,-44.0262 1013.77,-50.4051"/>
<text text-anchor="middle" x="975.5" y="-70.3" font-family="Times,serif" font-size="14.00">7</text>
</g>
<!-- N23 -->
<g id="node24" class="node"><title>N23</title>
<polygon fill="none" stroke="black" points="922.25,-48 825.75,-48 825.75,-0 922.25,-0 922.25,-48"/>
<text text-anchor="middle" x="874" y="-29.36" font-family="Times,serif" font-size="18.30">sweepspan</text>
<text text-anchor="end" x="914.5" y="-9.36" font-family="Times,serif" font-size="18.30">25 (4.2%)</text>
</g>
<!-- N20&#45;&gt;N23 -->
<g id="edge4" class="edge"><title>N20&#45;&gt;N23</title>
<path fill="none" stroke="black" d="M874,-113.13C874,-98.3981 874,-76.5793 874,-58.3378"/>
<polygon fill="black" stroke="black" points="877.5,-58.0914 874,-48.0914 870.5,-58.0914 877.5,-58.0914"/>
<text text-anchor="middle" x="881" y="-70.3" font-family="Times,serif" font-size="14.00">25</text>
</g>
<!-- N31 -->
<g id="node32" class="node"><title>N31</title>
<polygon fill="none" stroke="black" points="807,-41 691,-41 691,-7 807,-7 807,-41"/>
<text text-anchor="middle" x="749" y="-27.32" font-family="Times,serif" font-size="12.10">MHeap_FreeLocked</text>
<text text-anchor="end" x="799" y="-14.32" font-family="Times,serif" font-size="12.10">4 (0.7%)</text>
</g>
<!-- N20&#45;&gt;N31 -->
<g id="edge6" class="edge"><title>N20&#45;&gt;N31</title>
<path fill="none" stroke="black" d="M854.193,-113.362C833.133,-95.6716 799.683,-67.574 776.169,-47.8223"/>
<polygon fill="black" stroke="black" points="778.211,-44.9667 768.303,-41.2147 773.709,-50.3266 778.211,-44.9667"/>
<text text-anchor="middle" x="818.5" y="-70.3" font-family="Times,serif" font-size="14.00">3</text>
</g>
<!-- N30 -->
<g id="node31" class="node"><title>N30</title>
<polygon fill="none" stroke="black" points="1001,-42 941,-42 941,-6 1001,-6 1001,-42"/>
<text text-anchor="middle" x="971" y="-27.92" font-family="Times,serif" font-size="12.60">etext</text>
<text text-anchor="end" x="993" y="-13.92" font-family="Times,serif" font-size="12.60">5 (0.8%)</text>
</g>
<!-- N20&#45;&gt;N30 -->
<g id="edge15" class="edge"><title>N20&#45;&gt;N30</title>
<path fill="none" stroke="black" d="M889.585,-113.13C905.47,-95.9343 930.276,-69.0831 948.334,-49.5356"/>
<polygon fill="black" stroke="black" points="950.917,-51.8974 955.132,-42.177 945.775,-47.1474 950.917,-51.8974"/>
<text text-anchor="middle" x="934.5" y="-70.3" font-family="Times,serif" font-size="14.00">5</text>
</g>
<!-- N24 -->
<g id="node25" class="node"><title>N24</title>
<polygon fill="none" stroke="black" points="672.25,-47 451.75,-47 451.75,-1 672.25,-1 672.25,-47"/>
<text text-anchor="middle" x="562" y="-29.08" font-family="Times,serif" font-size="17.40">runtime.MSpanList_IsEmpty</text>
<text text-anchor="end" x="664.5" y="-10.08" font-family="Times,serif" font-size="17.40">21 (3.6%)</text>
</g>
<!-- N21&#45;&gt;N24 -->
<g id="edge11" class="edge"><title>N21&#45;&gt;N24</title>
<path fill="none" stroke="black" d="M693.273,-99.9112C666.865,-84.8412 635.141,-66.7382 609.496,-52.1036"/>
<polygon fill="black" stroke="black" points="611.117,-48.9989 600.697,-47.0824 607.647,-55.0787 611.117,-48.9989"/>
<text text-anchor="middle" x="666" y="-70.3" font-family="Times,serif" font-size="14.00">21</text>
</g>
<!-- N21&#45;&gt;N31 -->
<g id="edge20" class="edge"><title>N21&#45;&gt;N31</title>
<path fill="none" stroke="black" d="M746.86,-99.9112C747.3,-84.5017 747.831,-65.9211 748.254,-51.12"/>
<polygon fill="black" stroke="black" points="751.753,-51.2058 748.54,-41.1098 744.755,-51.0058 751.753,-51.2058"/>
<text text-anchor="middle" x="750.5" y="-70.3" font-family="Times,serif" font-size="14.00">1</text>
</g>
<!-- N26 -->
<g id="node27" class="node"><title>N26</title>
<polygon fill="none" stroke="black" points="933.25,-452 838.75,-452 838.75,-410 933.25,-410 933.25,-452"/>
<text text-anchor="middle" x="886" y="-435.44" font-family="Times,serif" font-size="15.70">runtime.casp</text>
<text text-anchor="end" x="925.5" y="-418.44" font-family="Times,serif" font-size="15.70">14 (2.4%)</text>
</g>
<!-- N22&#45;&gt;N26 -->
<g id="edge12" class="edge"><title>N22&#45;&gt;N26</title>
<path fill="none" stroke="black" d="M886,-503.948C886,-491.028 886,-475.52 886,-462.215"/>
<polygon fill="black" stroke="black" points="889.5,-462.109 886,-452.109 882.5,-462.109 889.5,-462.109"/>
<text text-anchor="middle" x="893" y="-474.3" font-family="Times,serif" font-size="14.00">14</text>
</g>
</g>
</g></svg>
